<?xml version="1.0" standalone="no"?>
<!DOCTYPE svg PUBLIC "-//W3C//DTD SVG 1.1//EN" "http://www.w3.org/Graphics/SVG/1.1/DTD/svg11.dtd">
<svg xmlns="http://www.w3.org/2000/svg"><metadata>This SVG WebFont was generated by YouWorkForThem.
Copyright (c) 2015 by Mariya Pigoulevskaya. All rights reserved.</metadata><defs><font horiz-adv-x="1251" id="ywftsvg"><font-face ascent="1638" bbox="-215 -639 3187 2363" cap-height="1434" descent="-410" font-family="" font-stretch="normal" font-weight="300" panose-1="0 0 4 0 0 0 0 0 0 0" underline-position="0" underline-thickness="0" unicode-range="U+0020-FB01" units-per-em="2048" x-height="1126"/><missing-glyph d="M0 0v1434h1024v-1434h-1024zM512 809l348 522h-696zM573 717l349 -522v1044zM164 102h696l-348 523zM102 1239v-1044l349 522z" horiz-adv-x="1024"/><glyph d="M254 1126v86q0 152 69.5 219.5t211.5 67.5q74 0 147 -8v-92q-80 4 -162 4t-122 -40t-40 -144v-93h324v-92h-324v-1034h-104v1034h-162v92h162zM994 1475q38 0 59.5 -19.5t21.5 -54.5t-21.5 -55.5t-59.5 -20.5t-59.5 20.5t-21.5 55.5t21.5 54.5t59.5 19.5zM942 1126h107 v-1126h-107v1126z" glyph-name="uniFB01" horiz-adv-x="1259" unicode="fi"/><glyph d="M1192 1403q-82 0 -122 -40t-40 -144v-93h324v-92h-324v-1034h-104v1034h-568v-1034h-104v1034h-162v92h162v86q0 152 69.5 219.5t211.5 67.5q74 0 147 -8v-92q-80 4 -162 4t-122 -40t-40 -144v-93h568v86q0 152 69.5 219.5t210.5 67.5q74 0 148 -8v-92q-80 4 -162 4z" glyph-name="f_f.liga" horiz-adv-x="1456" unicode="ff"/><glyph d="M926 1126v86q0 152 69.5 219.5t210.5 67.5q74 0 148 -8v-92q-80 4 -162 4t-122 -40t-40 -144v-93h324v-92h-324v-1034h-104v1034h-568v-1034h-104v1034h-162v92h162v86q0 152 69.5 219.5t211.5 67.5q74 0 147 -8v-92q-80 4 -162 4t-122 -40t-40 -144v-93h568zM1732 1475 q38 0 59 -19.5t21 -54.5t-21 -55.5t-59 -20.5t-59.5 20.5t-21.5 55.5t21.5 54.5t59.5 19.5zM1679 1126h107v-1126h-107v1126z" glyph-name="f_f_i.liga" horiz-adv-x="1996" unicode="ffi"/><glyph d="M926 1126v86q0 152 69.5 219.5t210.5 67.5q74 0 148 -8v-92q-80 4 -162 4t-122 -40t-40 -144v-93h324v-92h-324v-1034h-104v1034h-568v-1034h-104v1034h-162v92h162v86q0 152 69.5 219.5t211.5 67.5q74 0 147 -8v-92q-80 4 -162 4t-122 -40t-40 -144v-93h568zM1757 1475 v-1475h-106v1475h106z" glyph-name="f_f_l.liga" horiz-adv-x="1931" unicode="ffl"/><glyph d="M0 0v1434h1024v-1434h-1024zM512 809l348 522h-696zM573 717l349 -522v1044zM164 102h696l-348 523zM102 1239v-1044l349 522z" glyph-name=".notdef" horiz-adv-x="1024"/><glyph glyph-name="glyph1" horiz-adv-x="0"/><glyph glyph-name="glyph2" horiz-adv-x="681"/><glyph glyph-name="space" horiz-adv-x="583" unicode=" "/><glyph d="M225 1434h109v-322l-19 -741h-71l-19 741v322zM280 135q38 0 60 -20.5t22 -58.5t-22 -59.5t-60 -21.5t-61.5 21.5t-23.5 59.5t23.5 58.5t61.5 20.5z" glyph-name="exclam" horiz-adv-x="557" unicode="!"/><glyph d="M233 958l-38 416q-1 84 73 84t74 -84q0 -41 -15.5 -184t-23.5 -232h-70zM544.5 1458q73.5 0 73.5 -84q0 -36 -15 -181.5t-23 -234.5h-70q-8 88 -23.5 232t-15.5 184q0 84 73.5 84z" glyph-name="quotedbl" horiz-adv-x="813" unicode="&quot;"/><glyph d="M1075 842l-78 -322h258l-24 -96h-256l-101 -424h-102l100 424h-319l-100 -424h-103l101 424h-256l22 96h256l78 322h-256l22 96h256l101 424h102l-100 -424h319l101 424h102l-100 -424h256l-25 -96h-254zM971 842h-320l-76 -322h320z" glyph-name="numbersign" horiz-adv-x="1548" unicode="#"/><glyph d="M1225 377q0 -166 -133.5 -277.5t-343.5 -122.5v-231h-107v231q-164 12 -305 82t-227 185l67 73q92 -117 230.5 -181t309.5 -64t286.5 85t115.5 215t-91 191.5t-369 118.5t-391 138t-113 241t126 269.5t326 125.5v232h107v-232q295 -12 477 -201l-68 -75 q-172 182 -456 182q-180 0 -294 -85t-114 -210t89 -180.5t370 -112.5t394.5 -144t113.5 -253z" glyph-name="dollar" horiz-adv-x="1331" unicode="$"/><glyph d="M578 1458h8q195 0 309.5 -137t114.5 -367v-6q0 -229 -115 -366.5t-309 -137.5h-8q-193 0 -308.5 137.5t-115.5 366.5v6q0 229 115.5 366.5t308.5 137.5zM854 0h-115l770 1434h115zM584 1362h-4q-147 0 -233.5 -108.5t-86.5 -297.5v-10q0 -186 86 -295.5t234 -109.5h4 q150 0 235.5 108.5t85.5 296.5v10q0 188 -85.5 297t-235.5 109zM1778 989h8q193 0 308.5 -137t115.5 -367v-6q0 -229 -116 -366.5t-308 -137.5h-8q-195 0 -309.5 137.5t-114.5 366.5v6q0 229 114.5 366.5t309.5 137.5zM1784 893h-4q-150 0 -236 -108.5t-86 -297.5v-10 q0 -188 86 -296.5t236 -108.5h4q150 0 234.5 108.5t84.5 296.5v10q0 188 -86 297t-233 109z" glyph-name="percent" horiz-adv-x="2363" unicode="%"/><glyph d="M109 324q0 146 85 237.5t322 204.5l-27 29q-193 205 -193 348t113 229t294 86t298 -89t117 -234q0 -113 -95 -202t-335 -198l383 -405q96 74 225 186l68 -76q-127 -111 -223 -184l241 -256h-139l-186 197q-311 -221 -527 -222q-180 0 -300.5 101.5t-120.5 247.5z M403 1149q0 -63 47.5 -138t165.5 -200l2 2q225 102 309.5 171t84.5 161t-87 154.5t-225 62.5t-217.5 -58.5t-79.5 -154.5zM530 72q186 0 459 196l-399 422q-229 -106 -303 -178t-74 -184.5t89 -184t228 -71.5z" glyph-name="ampersand" horiz-adv-x="1454" unicode="&amp;"/><glyph d="M233 958l-38 416q-1 84 73 84t74 -84q0 -41 -15.5 -184t-23.5 -232h-70z" glyph-name="quotesingle" horiz-adv-x="536" unicode="'"/><glyph d="M260 729v-24q0 -256 109.5 -486.5t296.5 -361.5l-74 -68q-201 145 -319.5 393t-118.5 527v16q0 276 117.5 524.5t320.5 395.5l74 -68q-186 -133 -296 -362.5t-110 -485.5z" glyph-name="parenleft" horiz-adv-x="829" unicode="("/><glyph d="M707 725v-16q0 -279 -119 -527t-320 -393l-73 68q186 131 295.5 361.5t109.5 486.5v24q0 256 -109.5 485.5t-295.5 362.5l73 68q203 -147 321 -395.5t118 -524.5z" glyph-name="parenright" horiz-adv-x="890" unicode=")"/><glyph d="M664 1061l208 -260l-84 -66l-210 269l-213 -269l-82 66l211 262l-299 106l34 99l297 -109l-2 316h107l-2 -316l297 109l35 -99z" glyph-name="asterisk" horiz-adv-x="1155" unicode="*"/><glyph d="M1020 616h-412v-411h-104v413h-412v95h412v409h104v-409h412v-97z" glyph-name="plus" horiz-adv-x="1112" unicode="+"/><glyph d="M297 135q39 0 63.5 -27.5t24.5 -83.5t-47 -162t-117 -198l-67 49q102 156 127 267q-70 6 -70 77q0 35 23.5 56.5t62.5 21.5z" glyph-name="comma" horiz-adv-x="579" unicode=","/><glyph d="M850 618h-655v97h655v-97z" glyph-name="hyphen" horiz-adv-x="1044" unicode="-"/><glyph d="M280 -25q-38 0 -61.5 21.5t-23.5 59.5t23.5 58.5t61.5 20.5t60 -20.5t22 -58.5t-22 -59.5t-60 -21.5z" glyph-name="period" horiz-adv-x="557" unicode="."/><glyph d="M176 -31h-104l438 1538h104z" glyph-name="slash" horiz-adv-x="686" unicode="/"/><glyph d="M729 1458h12q268 0 422 -197.5t154 -537.5v-10q0 -340 -153.5 -539t-422.5 -199h-12q-268 0 -421.5 199t-153.5 539v10q0 340 153.5 537.5t421.5 197.5zM1212 711v14q0 297 -125.5 467t-347.5 170h-6q-221 0 -347 -170t-126 -467v-14q0 -297 126 -468t347 -171h6 q221 0 347 171t126 468z" glyph-name="zero" horiz-adv-x="1470" unicode="0"/><glyph d="M629 1434v-1434h-105v1290l-418 -342l-75 70l512 416h86z" glyph-name="one" horiz-adv-x="843" unicode="1"/><glyph d="M1188 96v-96h-1055v80q448 377 574.5 493.5t177.5 172t89 112.5t46 94t8 88q0 143 -102.5 232.5t-263.5 89.5q-279 0 -437 -256l-67 76q184 276 506 276q207 0 338 -116.5t131 -301.5q0 -115 -63.5 -221t-229.5 -265t-527 -458h875z" glyph-name="two" horiz-adv-x="1320" unicode="2"/><glyph d="M1184 395q0 -184 -143.5 -302t-364.5 -118q-168 0 -316.5 72t-250.5 203l69 74q195 -252 498 -252q176 0 289.5 90t113.5 231q0 299 -397 299h-240v96h217q172 0 271.5 76t99.5 206t-102.5 211t-270.5 81q-283 0 -436 -248l-67 74q178 270 503 270q215 0 346.5 -108.5 t131.5 -286.5q0 -102 -63.5 -185t-174.5 -124q287 -72 287 -359z" glyph-name="three" horiz-adv-x="1292" unicode="3"/><glyph d="M1214 477v-96h-278v-381h-107v381h-768v80l744 973h131v-957h278zM829 477v828l-630 -828h630z" glyph-name="four" horiz-adv-x="1275" unicode="4"/><glyph d="M692 924q217 0 355.5 -133t138.5 -341t-144.5 -341.5t-373.5 -133.5q-164 0 -311.5 72t-254.5 205l70 74q199 -254 494 -254q184 0 299.5 105.5t115.5 274.5t-109.5 272t-285.5 103q-219 0 -414 -163l-61 28l76 742h819v-97h-733l-54 -540q156 127 373 127z" glyph-name="five" horiz-adv-x="1298" unicode="5"/><glyph d="M715 934q205 0 334 -131t129 -339t-138.5 -348.5t-343.5 -140.5q-258 0 -400 187.5t-142 541.5t145 554t415 200t427 -188l-72 -76q-133 168 -356 168q-434 0 -453 -651q80 104 200 163.5t255 59.5zM692 72h6q158 0 265.5 110.5t107.5 274.5v6q0 170 -97 272.5 t-259 102.5q-279 0 -453 -258q16 -238 129 -373t301 -135z" glyph-name="six" horiz-adv-x="1300" unicode="6"/><glyph d="M1116 1434v-78q-281 -295 -419 -494.5t-194.5 -393.5t-56.5 -468h-106q0 391 128 666.5t499 670.5h-906v97h1055z" glyph-name="seven" horiz-adv-x="1177" unicode="7"/><glyph d="M1178 389q0 -188 -144.5 -301t-386.5 -113h-8q-242 0 -386 113t-144 301q0 135 78.5 232.5t215.5 134.5q-117 39 -181 123t-64 196q0 174 130 278.5t349 104.5h12q219 0 349 -103.5t130 -279.5q0 -113 -64 -196.5t-181 -122.5q137 -37 216 -134.5t79 -232.5zM262 1077 q0 -129 104.5 -206.5t274.5 -77.5h4q170 0 274.5 77.5t104.5 206.5t-103.5 207t-275.5 78h-4q-172 0 -275.5 -78t-103.5 -207zM637 72h12q197 0 310.5 85t113.5 233t-108.5 227t-317.5 79h-8q-209 0 -317.5 -79t-108.5 -227t113.5 -233t310.5 -85z" glyph-name="eight" horiz-adv-x="1286" unicode="8"/><glyph d="M604 1458q258 0 400.5 -186t142.5 -540t-145.5 -555.5t-414.5 -201.5t-427 189l71 78q133 -170 357 -170q434 0 452 653q-80 -104 -199.5 -163.5t-254.5 -59.5q-205 0 -334 130t-129 338t138 348t343 140zM586 598q281 0 452 256q-14 238 -127.5 373t-302.5 135h-6 q-158 0 -265.5 -110.5t-107.5 -274.5v-4q0 -172 96.5 -273.5t260.5 -101.5z" glyph-name="nine" horiz-adv-x="1300" unicode="9"/><glyph d="M280 1151q38 0 60 -20.5t22 -58.5t-22 -59.5t-60 -21.5t-61.5 21.5t-23.5 59.5t23.5 58.5t61.5 20.5zM280 135q38 0 60 -20.5t22 -58.5t-22 -59.5t-60 -21.5t-61.5 21.5t-23.5 59.5t23.5 58.5t61.5 20.5z" glyph-name="colon" horiz-adv-x="557" unicode=":"/><glyph d="M296 991q-38 0 -61.5 21.5t-23.5 59.5t23.5 58.5t61.5 20.5t60.5 -20.5t22.5 -58.5t-22.5 -59.5t-60.5 -21.5zM297 135q39 0 63.5 -27.5t24.5 -83.5t-47 -162t-117 -198l-67 49q102 156 127 267q-70 6 -70 77q0 35 23.5 56.5t62.5 21.5z" glyph-name="semicolon" horiz-adv-x="579" unicode=";"/><glyph d="M1020 932l-778 -270l778 -271v-106l-928 327v99l928 327v-106z" glyph-name="less" horiz-adv-x="1112" unicode="&lt;"/><glyph d="M1020 819h-928v96h928v-96zM1020 406h-928v96h928v-96z" glyph-name="equal" horiz-adv-x="1112" unicode="="/><glyph d="M1020 711v-99l-928 -327v106l778 271l-778 270v106z" glyph-name="greater" horiz-adv-x="1112" unicode=">"/><glyph d="M610 1458q207 0 335 -114t128 -294t-132 -294.5t-341 -130.5l-14 -254h-72l-18 336q221 6 347 95t126 236t-98.5 235.5t-262.5 88.5q-225 0 -405 -188l-70 73q205 211 477 211zM551 135q37 0 60.5 -20.5t23.5 -58.5t-23.5 -59.5t-60.5 -21.5t-60.5 21.5t-23.5 59.5 t23.5 58.5t60.5 20.5z" glyph-name="question" horiz-adv-x="1226" unicode="?"/><glyph d="M1151 1550q442 0 707.5 -257t265.5 -685q0 -279 -102.5 -456t-264.5 -177q-100 0 -159.5 68t-59.5 182v17q-57 -125 -172 -196t-258 -71h-12q-227 0 -368.5 164t-141.5 418v12q0 254 141 418t369 164h12q145 0 259 -69.5t171 -194.5v239h104v-895q0 -160 117 -159 q113 0 185.5 151.5t72.5 382.5q0 391 -233.5 619.5t-630.5 228.5t-643 -246t-250 -638t240.5 -636.5t634.5 -244.5q215 0 364 59v-96q-160 -59 -366 -60q-430 0 -704.5 270.5t-274.5 701.5t277.5 708.5t719.5 277.5zM1108 72h12q186 0 302 130t116 357v8q0 217 -116.5 352.5 t-301.5 135.5h-12q-184 0 -300 -135.5t-116 -352.5v-8q0 -215 117 -351t299 -136z" glyph-name="at" horiz-adv-x="2277" unicode="@"/><glyph d="M1044 489h-671l-199 -489h-113l588 1434h119l588 -1434h-113zM1006 588l-297 727l-295 -727h592z" glyph-name="A" horiz-adv-x="1417" unicode="A"/><glyph d="M1278 403q0 -188 -113.5 -295.5t-357.5 -107.5h-592v1434h561q449 0 449 -365q0 -231 -221 -307q274 -76 274 -359zM745 795q375 0 375 271t-344 271h-454v-542h423zM322 96h489q360 0 360 305q0 297 -374 297h-475v-602z" glyph-name="B" horiz-adv-x="1384" unicode="B"/><glyph d="M803 1458h14q160 0 302.5 -67.5t236.5 -184.5l-70 -73q-184 229 -473 229h-10q-246 0 -394.5 -175t-148.5 -460v-20q0 -279 152.5 -457t396.5 -178h10q291 0 473 233l70 -74q-206 -256 -526 -256t-501 202t-181 532v16q0 330 177 531.5t472 201.5z" glyph-name="C" horiz-adv-x="1468" unicode="C"/><glyph d="M215 1434h490q293 0 472 -196t179 -513v-16q0 -317 -179.5 -513t-471.5 -196h-490v1434zM1249 707v20q0 276 -151.5 443t-397.5 167h-378v-1241h378q246 0 397.5 167.5t151.5 443.5z" glyph-name="D" horiz-adv-x="1509" unicode="D"/><glyph d="M322 1337v-542h745v-97h-745v-602h802v-96h-909v1434h909v-97h-802z" glyph-name="E" horiz-adv-x="1232" unicode="E"/><glyph d="M322 1337v-553h745v-96h-745v-688h-107v1434h909v-97h-802z" glyph-name="F" horiz-adv-x="1232" unicode="F"/><glyph d="M1417 743v-743h-106v299q-66 -156 -198 -240t-306 -84q-293 0 -473 205t-180 529v16q0 330 177 531.5t472 201.5h14q160 0 302.5 -67.5t236.5 -184.5l-70 -73q-184 229 -473 229h-10q-246 0 -394.5 -175t-148.5 -460v-20q0 -281 150 -458q152 -177 384 -177t374.5 154.5 t142.5 408.5v12h-514v96h620z" glyph-name="G" horiz-adv-x="1581" unicode="G"/><glyph d="M1335 1434v-1434h-104v698h-909v-698h-107v1434h107v-639h909v639h104z" glyph-name="H" horiz-adv-x="1550" unicode="H"/><glyph d="M322 1434v-1434h-107v1434h107z" glyph-name="I" horiz-adv-x="536" unicode="I"/><glyph d="M195 72q129 0 181 77.5t52 245.5v1039h104v-1037q0 -213 -75.5 -317.5t-257.5 -104.5q-74 1 -127 9v98q78 -10 123 -10z" glyph-name="J" horiz-adv-x="747" unicode="J"/><glyph d="M322 0h-107v1434h107v-912l827 912h133l-532 -588l600 -846h-127l-543 768l-358 -393v-375z" glyph-name="K" horiz-adv-x="1421" unicode="K"/><glyph d="M1067 96v-96h-852v1434h107v-1338h745z" glyph-name="L" horiz-adv-x="1138" unicode="L"/><glyph d="M1495 1434v-1434h-106v1243l-504 -928h-80l-504 928v-1243h-106v1434h116l535 -983l532 983h117z" glyph-name="M" horiz-adv-x="1710" unicode="M"/><glyph d="M1319 1432v-1434h-107l-911 1272v-1270h-106v1434h108l911 -1272v1270h105z" glyph-name="N" horiz-adv-x="1513" unicode="N"/><glyph d="M805 1458h24q291 0 471.5 -205.5t180.5 -527.5v-16q0 -322 -180.5 -528t-471.5 -206h-24q-291 0 -471 206t-180 528v16q0 322 180 527.5t471 205.5zM827 1362h-18q-244 0 -396.5 -178t-152.5 -457v-20q0 -279 152.5 -457t396.5 -178h18q244 0 396.5 178t152.5 457v20 q0 279 -152.5 457t-396.5 178z" glyph-name="O" horiz-adv-x="1634" unicode="O"/><glyph d="M215 1434h567q465 0 465 -416v-8q0 -414 -461 -414h-464v-596h-107v1434zM322 692h469q195 0 272.5 83t77.5 238t-79 239.5t-274 84.5h-466v-645z" glyph-name="P" horiz-adv-x="1384" unicode="P"/><glyph d="M1481 725v-16q0 -186 -63.5 -339t-180.5 -251l154 -187l-82 -65l-158 190q-141 -82 -322 -82h-24q-291 0 -471 206t-180 528v16q0 322 180 527.5t471 205.5h24q291 0 471.5 -205.5t180.5 -527.5zM1376 707v20q0 279 -152.5 457t-396.5 178h-18q-244 0 -396.5 -178 t-152.5 -457v-20q0 -279 152.5 -457t396.5 -178h18q141 0 258 63l-188 227l82 66l192 -231q205 178 205 510z" glyph-name="Q" horiz-adv-x="1634" unicode="Q"/><glyph d="M322 606v-606h-107v1434h567q465 0 465 -420q0 -342 -325 -398l329 -616h-121l-319 606h-489zM322 702h469q195 0 272.5 81t77.5 233t-79 236.5t-274 84.5h-466v-635z" glyph-name="R" horiz-adv-x="1386" unicode="R"/><glyph d="M668 1458q158 0 294 -53t228 -150l-68 -75q-172 182 -456 182q-180 0 -294 -85t-114 -210t89 -180.5t370 -112.5t394.5 -144t113.5 -257t-146.5 -284t-350.5 -114t-363.5 72t-255.5 197l67 73q92 -117 230.5 -181t309.5 -64t286.5 85t115.5 215t-91 191.5t-369 118.5 t-391 138t-113 247t144.5 278.5t369.5 112.5z" glyph-name="S" horiz-adv-x="1331" unicode="S"/><glyph d="M1184 1337h-504v-1337h-105v1337h-503v97h1112v-97z" glyph-name="T" horiz-adv-x="1255" unicode="T"/><glyph d="M1307 1434v-869q0 -279 -140.5 -434.5t-392.5 -155.5h-24q-252 0 -393.5 156t-141.5 434v869h107v-871q0 -238 112.5 -364.5t317.5 -126.5h18q205 0 318.5 127t113.5 364v871h105z" glyph-name="U" horiz-adv-x="1501" unicode="U"/><glyph d="M1282 1434l-547 -1434h-117l-546 1434h112l494 -1307l491 1307h113z" glyph-name="V" horiz-adv-x="1353" unicode="V"/><glyph d="M1913 1434l-418 -1434h-121l-381 1296l-381 -1296h-120l-420 1434h108l373 -1301l379 1301h121l381 -1305l370 1305h109z" glyph-name="W" horiz-adv-x="1984" unicode="W"/><glyph d="M1112 0l-457 645l-456 -645h-127l520 735l-494 699h125l434 -615l437 615h127l-498 -705l514 -729h-125z" glyph-name="X" horiz-adv-x="1308" unicode="X"/><glyph d="M709 0h-105v516l-532 918h121l462 -807l467 807h121l-534 -918v-516z" glyph-name="Y" horiz-adv-x="1314" unicode="Y"/><glyph d="M1155 96v-96h-1046v96l909 1241h-887v97h1014v-97l-912 -1241h922z" glyph-name="Z" horiz-adv-x="1263" unicode="Z"/><glyph d="M621 1524h-320v-1618h320v-96h-426v1810h426v-96z" glyph-name="bracketleft" horiz-adv-x="815" unicode="["/><glyph d="M614 -31h-104l-438 1538h104z" glyph-name="backslash" horiz-adv-x="686" unicode="\"/><glyph d="M621 -190h-426v96h319v1618h-319v96h426v-1810z" glyph-name="bracketright" horiz-adv-x="815" unicode="]"/><glyph d="M528 1059l-159 272l-160 -272h-117l221 375h111l221 -375h-117z" glyph-name="asciicircum" horiz-adv-x="737" unicode="^"/><glyph d="M1262 -160h-1067v97h1067v-97z" glyph-name="underscore" horiz-adv-x="1456" unicode="_"/><glyph d="M223 1964l289 -393h-121l-299 393h131z" glyph-name="grave" horiz-adv-x="604" unicode="`"/><glyph d="M608 1151h8q401 0 402 -416v-735h-107v256q-55 -129 -170.5 -205t-259.5 -76h-4q-166 0 -265 90.5t-99 241.5q0 197 194.5 290t603.5 95v56q0 307 -301 307h-10q-221 0 -367 -162l-65 70q166 188 440 188zM483 72q184 0 306 139t122 348v41q-358 -2 -525 -72.5 t-167 -222.5q0 -109 70.5 -171t193.5 -62z" glyph-name="a" horiz-adv-x="1191" unicode="a"/><glyph d="M719 1151h12q229 0 369.5 -164t140.5 -418v-12q0 -254 -140 -418t-370 -164h-12q-141 0 -256 70t-172 193v-238h-107v1475h107v-584q57 123 172 191.5t256 68.5zM1137 559v8q0 217 -117 352.5t-301 135.5h-12q-184 0 -300 -135.5t-116 -352.5v-8q0 -215 116.5 -351 t299.5 -136h12q184 0 301 136t117 351z" glyph-name="b" horiz-adv-x="1353" unicode="b"/><glyph d="M641 1151h12q127 0 239 -53.5t189 -147.5l-65 -71q-66 82 -161 129t-202 47h-12q-190 0 -306 -135.5t-116 -352.5v-8q0 -217 116 -352t306 -135h12q106 0 201.5 47t161.5 129l65 -70q-164 -203 -420 -203t-402 160t-146 422v12q0 256 145 419t383 163z" glyph-name="c" horiz-adv-x="1183" unicode="c"/><glyph d="M1169 1475v-1475h-104v242q-57 -125 -172 -196t-258 -71h-12q-227 0 -368.5 164t-141.5 418v12q0 254 141 418t369 164h12q145 0 259 -69.5t171 -194.5v588h104zM635 72h12q184 0 301 136t117 351v8q0 217 -117 352.5t-301 135.5h-12q-184 0 -300 -135.5t-116 -352.5v-8 q0 -215 117 -351t299 -136z" glyph-name="d" horiz-adv-x="1353" unicode="d"/><glyph d="M1149 518h-928q10 -203 127 -324.5t301 -121.5h13q231 0 372 176l66 -70q-162 -203 -428 -203t-412.5 158t-146.5 424v12q0 260 145 421t377 161h12q227 0 364.5 -158.5t137.5 -423.5v-51zM647 1055h-12q-176 0 -289 -120t-125 -321h823q-12 203 -118.5 322t-278.5 119z " glyph-name="e" unicode="e"/><glyph d="M520 1403q-82 0 -122 -40t-40 -144v-93h324v-92h-324v-1034h-104v1034h-162v92h162v86q0 152 69.5 219.5t211.5 67.5q74 0 147 -8v-92q-80 4 -162 4z" glyph-name="f" horiz-adv-x="780" unicode="f"/><glyph d="M1169 1126v-1079q0 -250 -138 -396.5t-374 -146.5q-291 0 -469 197l66 72q158 -172 401 -172q190 0 300 119.5t110 326.5v195q-57 -125 -172 -196t-258 -71h-12q-227 0 -368.5 164t-141.5 418v12q0 254 141 418t369 164h12q145 0 259 -69.5t171 -194.5v239h104zM635 72 h12q184 0 301 136t117 351v8q0 217 -117 352.5t-301 135.5h-12q-184 0 -300 -135.5t-116 -352.5v-8q0 -215 117 -351t299 -136z" glyph-name="g" horiz-adv-x="1343" unicode="g"/><glyph d="M694 1151h8q193 0 296.5 -114.5t103.5 -321.5v-715h-107v715q0 164 -75.5 252t-225.5 88h-8q-170 0 -277.5 -136.5t-107.5 -351.5v-567h-106v1475h106v-582q53 121 156.5 189.5t236.5 68.5z" glyph-name="h" horiz-adv-x="1275" unicode="h"/><glyph d="M195 1420.5q0 54.5 81 54.5q37 0 58.5 -19.5t21.5 -54.5t-21.5 -55.5t-59.5 -20.5t-59 20.5t-21 75zM330 0h-107v1126h107v-1126z" glyph-name="i" horiz-adv-x="540" unicode="i"/><glyph d="M267 1475q38 0 59.5 -19.5t21.5 -54.5t-21.5 -55.5t-59.5 -20.5t-59.5 20.5t-21.5 55.5t21.5 54.5t59.5 19.5zM322 1126v-1325q0 -154 -59.5 -225.5t-188.5 -71.5q-59 0 -101 11v94q47 -8 88 -8q84 0 119 42t35 144v1339h107z" glyph-name="j" horiz-adv-x="532" unicode="j"/><glyph d="M301 0h-106v1475h106v-1029l639 680h137l-454 -479l499 -647h-129l-442 571l-250 -262v-309z" glyph-name="k" horiz-adv-x="1173" unicode="k"/><glyph d="M301 0h-106v1475h106v-1475z" glyph-name="l" horiz-adv-x="475" unicode="l"/><glyph d="M1397 1151h8q184 0 282.5 -115.5t98.5 -316.5v-719h-107v719q0 160 -71.5 248t-210.5 88h-8q-164 0 -257.5 -134.5t-93.5 -353.5v-567h-106v719q0 160 -72 248t-211 88h-8q-164 0 -257 -134.5t-93 -353.5v-567h-107v1126h107v-223q47 117 139 182.5t219 65.5h8 q143 0 235.5 -71.5t127.5 -200.5q47 127 144.5 199.5t232.5 72.5z" glyph-name="m" horiz-adv-x="1959" unicode="m"/><glyph d="M684 1151h8q193 0 296.5 -114.5t103.5 -321.5v-715h-107v715q0 164 -75.5 252t-225.5 88h-8q-170 0 -277.5 -136.5t-107.5 -351.5v-567h-107v1126h107v-233q53 121 156.5 189.5t236.5 68.5z" glyph-name="n" horiz-adv-x="1265" unicode="n"/><glyph d="M639 1151h12q236 0 380.5 -164t144.5 -418v-12q0 -254 -144.5 -418t-380.5 -164h-12q-238 0 -382 164t-144 418v12q0 254 144 418t382 164zM651 1055h-12q-188 0 -304 -135.5t-116 -352.5v-8q0 -217 117 -352t303 -135h12q186 0 303 135t117 352v8q0 217 -116 352.5 t-304 135.5z" glyph-name="o" horiz-adv-x="1288" unicode="o"/><glyph d="M729 1151h12q229 0 369.5 -164t140.5 -418v-12q0 -254 -140 -418t-370 -164h-12q-141 0 -256 70t-172 193v-709h-106v1597h106v-235q57 123 172 191.5t256 68.5zM1147 559v8q0 217 -117 352.5t-301 135.5h-12q-184 0 -300 -135.5t-116 -352.5v-8q0 -215 117 -351 t299 -136h12q184 0 301 136t117 351z" glyph-name="p" horiz-adv-x="1363" unicode="p"/><glyph d="M1169 1126v-1597h-104v713q-57 -125 -172 -196t-258 -71h-12q-227 0 -368.5 164t-141.5 418v12q0 254 141 418t369 164h12q145 0 259 -69.5t171 -194.5v239h104zM635 72h12q184 0 301 136t117 351v8q0 217 -117 352.5t-301 135.5h-12q-184 0 -300 -135.5t-116 -352.5v-8 q0 -215 117 -351t299 -136z" glyph-name="q" horiz-adv-x="1353" unicode="q"/><glyph d="M682 1151q20 0 37 -2v-94h-31q-180 0 -288.5 -139.5t-108.5 -362.5v-553h-107v1126h107v-241q53 123 154.5 194.5t236.5 71.5z" glyph-name="r" horiz-adv-x="770" unicode="r"/><glyph d="M557 1151q268 0 420 -162l-66 -71q-135 137 -354 137q-133 0 -222 -63.5t-89 -152.5t68 -131t290 -88t313 -118t91 -209t-118 -227.5t-284 -90.5t-295 57.5t-202 155.5l65 74q150 -190 412 -190q139 0 228 62.5t89 158.5t-69.5 142t-289.5 90t-312.5 113t-92.5 202 t117 222t301 89z" glyph-name="s" horiz-adv-x="1116" unicode="s"/><glyph d="M358 1034v-772q0 -106 38 -148t141 -42q51 0 145 8v-92q-94 -12 -164 -13q-141 0 -202.5 72t-61.5 229v758h-162v92h162v187l104 18v-205h324v-92h-324z" glyph-name="t" horiz-adv-x="794" unicode="t"/><glyph d="M1061 1126v-1126h-107v236q-53 -121 -154.5 -191t-234.5 -70h-2q-186 0 -287.5 115t-101.5 316v720h107v-720q0 -158 74.5 -246t215.5 -88h2q168 0 274.5 137t106.5 350v567h107z" glyph-name="u" horiz-adv-x="1234" unicode="u"/><glyph d="M1065 1126l-442 -1126h-129l-443 1126h113l395 -1013l393 1013h113z" glyph-name="v" horiz-adv-x="1116" unicode="v"/><glyph d="M1614 1126l-350 -1126h-127l-303 993l-306 -993h-127l-350 1126h111l303 -997l303 997h129l303 -997l303 997h111z" glyph-name="w" horiz-adv-x="1665" unicode="w"/><glyph d="M895 0l-356 492l-361 -492h-127l422 573l-405 553h127l342 -469l346 469h125l-408 -553l422 -573h-127z" glyph-name="x" horiz-adv-x="1073" unicode="x"/><glyph d="M259 -496q-95 0 -177 82l65 72q63 -57 117 -57t99 59t108 223l45 117h-22l-443 1126h113l395 -1015l393 1015h113l-506 -1286q-74 -188 -139.5 -262t-160.5 -74z" glyph-name="y" horiz-adv-x="1116" unicode="y"/><glyph d="M1008 96v-96h-906v96l764 934h-725v96h856v-96l-766 -934h777z" glyph-name="z" horiz-adv-x="1110" unicode="z"/><glyph d="M440 1362v-399q0 -180 -104 -240q104 -59 104 -240v-415q0 -104 40 -145.5t124 -41.5t156 4v-92q-68 -8 -144 -8q-143 0 -211.5 68.5t-68.5 220.5v415q0 102 -40 144.5t-140 42.5h-84v96h84q100 0 140 41t40 143v400q0 152 68.5 220.5t211.5 68.5q41 0 144 -9v-94 q-111 6 -139 6q-100 0 -140.5 -42t-40.5 -144z" glyph-name="braceleft" horiz-adv-x="954" unicode="{"/><glyph d="M322 -205h-107v1639h107v-1639z" glyph-name="bar" horiz-adv-x="536" unicode="|"/><glyph d="M883 772v-96h-82q-100 0 -140 -42t-40 -145v-415q0 -152 -70 -220.5t-213 -68.5q-76 0 -143 8v92q75 -4 157 -4t122 41t40 146v415q0 180 104 240q-104 59 -104 240v399q0 102 -40 144t-140 42q-27 0 -139 -6v94q102 8 143 9q143 0 213 -69t70 -220v-400 q0 -102 39.5 -143t140.5 -41h82z" glyph-name="braceright" horiz-adv-x="954" unicode="}"/><glyph d="M682 532q-106 0 -209 117q-59 66 -87 86.5t-70 20.5t-76.5 -42t-65.5 -155l-82 45q63 248 236 248q106 0 209 -117q59 -66 86.5 -86t69.5 -20t77 41.5t66 154.5l82 -45q-63 -248 -236 -248z" glyph-name="asciitilde" horiz-adv-x="1009" unicode="~"/><glyph d="M280 1151q38 0 60 -21.5t22 -58.5t-22 -58.5t-60 -21.5t-61.5 21.5t-23.5 58.5t23.5 58.5t61.5 21.5zM334 -307h-109v323l19 740h71l19 -740v-323z" glyph-name="exclamdown" horiz-adv-x="557" unicode="¡"/><glyph d="M641 72h12q106 0 201.5 47t161.5 129l65 -70q-143 -178 -381 -201v-231h-104v231q-221 18 -352 176t-131 404v12q0 244 132 405t351 175v231h104v-231q233 -18 381 -199l-65 -71q-66 82 -161 129t-202 47h-12q-190 0 -306 -135.5t-116 -352.5v-8q0 -217 116 -352 t306 -135z" glyph-name="cent" horiz-adv-x="1183" unicode="¢"/><glyph d="M133 80q225 170 225 362q0 90 -22 154h-203v96h166q-78 186 -78 326q0 195 130 317.5t335 122.5q326 0 494 -276l-66 -76q-145 256 -426 256q-158 0 -260 -97.5t-102 -246.5q0 -63 8 -101t11 -54.5t15.5 -48.5t14.5 -39t18.5 -44t16.5 -39h505v-96h-471q19 -59 19 -127 q0 -221 -178 -373h893v-96h-1045v80z" glyph-name="sterling" horiz-adv-x="1312" unicode="£"/><glyph d="M672 -25h-13q-223 0 -376 131l-156 -159l-74 76l156 157q-123 156 -123 377v12q0 221 123 377l-158 158l74 74l158 -156q156 129 376 129h13q221 0 377 -129l157 158l74 -74l-158 -160q125 -154 125 -377v-12q0 -221 -125 -375l160 -159l-74 -74l-157 157 q-154 -131 -379 -131zM659 72h13q207 0 339 137t132 350v8q0 215 -132 351.5t-339 136.5h-13q-207 0 -338 -136.5t-131 -351.5v-8q0 -213 132 -350t337 -137z" glyph-name="currency" horiz-adv-x="1333" unicode="¤"/><glyph d="M1049 567v-96h-340v-139h340v-96h-340v-236h-105v236h-338v96h338v139h-338v96h307l-501 867h121l462 -807l467 807h121l-504 -867h310z" glyph-name="yen" horiz-adv-x="1314" unicode="¥"/><glyph d="M322 772h-107v662h107v-662zM322 -205h-107v662h107v-662z" glyph-name="brokenbar" horiz-adv-x="536" unicode="¦"/><glyph d="M981 4q0 -141 -116.5 -230t-301.5 -89q-268 0 -420 161l66 72q137 -137 356 -137q133 0 222.5 63.5t89.5 153.5t-70.5 132t-290.5 87t-311.5 117t-91.5 207q0 172 190 237q-156 76 -156 224t117 237.5t301 89.5q268 0 420 -162l-65 -71q-137 137 -357 137 q-133 0 -222 -63.5t-89 -152.5t69 -131t291 -88t313 -118t91 -207q0 -169 -193 -237q84 -39 121 -94.5t37 -137.5zM219 535q0 -86 69.5 -132.5t272.5 -89.5l86 -18q121 6 191.5 52t70.5 133t-69.5 133t-272.5 87l-86 19q-121 -6 -191.5 -52t-70.5 -132z" glyph-name="section" horiz-adv-x="1128" unicode="§"/><glyph d="M177 1692q-38 0 -61.5 21.5t-23.5 59.5t23.5 58t61.5 20t60.5 -20.5t22.5 -58.5t-22.5 -59t-60.5 -21zM556 1692q-38 0 -61.5 21.5t-23.5 59.5t23.5 58t61.5 20t60.5 -20.5t22.5 -58.5t-22.5 -59t-60.5 -21z" glyph-name="dieresis" horiz-adv-x="731" unicode="¨"/><glyph d="M708.5 1499q237.5 0 395.5 -155.5t158 -391t-158 -392.5t-395.5 -157t-396 157t-158.5 392.5t158.5 391t396 155.5zM708 1403q-194 0 -321 -128t-127 -322.5t127 -323.5t321 -129t320.5 129t126.5 323.5t-126.5 322.5t-320.5 128zM713 1243h4q127 0 211 -100l-64 -66 q-70 70 -147 70h-2q-72 0 -117 -54.5t-45 -138.5v-4q0 -84 45 -138t117 -54h2q80 0 147 69l62 -65q-80 -100 -209 -100h-4q-119 0 -191.5 79.5t-72.5 208.5v4q0 131 72.5 210t191.5 79z" glyph-name="copyright" horiz-adv-x="1415" unicode="©"/><glyph d="M326 588l362 -424h-131l-362 424l362 424h131zM729 588l363 -424h-131l-363 424l363 424h131z" glyph-name="guillemotleft" horiz-adv-x="1286" unicode="«"/><glyph d="M1020 332h-105v286h-823v97h928v-383z" glyph-name="logicalnot" horiz-adv-x="1112" unicode="¬"/><glyph d="M706.5 1499q237.5 0 395.5 -155.5t158 -391t-158 -392.5t-395.5 -157t-395 157t-157.5 392.5t157.5 391t395 155.5zM706.5 500q192.5 0 320.5 129t128 323.5t-128 322.5t-320.5 128t-319.5 -128t-127 -322.5t127 -323.5t319.5 -129zM940 1055q0 -115 -111 -150l125 -233 h-118l-119 219h-115v-219h-104v553h250q192 0 192 -170zM602 981h133q100 0 101 74q0 43 -25 61.5t-80 18.5h-129v-154z" glyph-name="registered" horiz-adv-x="1413" unicode="®"/><glyph d="M604 1690h-512v96h512v-96z" glyph-name="macron" horiz-adv-x="696" unicode="¯"/><glyph d="M479 1458h6q137 0 230.5 -91t93.5 -226v-8q0 -133 -93 -225.5t-231 -92.5h-6q-137 0 -231 92t-94 226v8q0 135 93 226t232 91zM483 1362h-4q-94 0 -156.5 -63.5t-62.5 -157.5v-6q0 -94 63.5 -159t155.5 -65h4q94 0 158 64.5t64 159.5v6q0 94 -64 157.5t-158 63.5z" glyph-name="degree" horiz-adv-x="962" unicode="°"/><glyph d="M1020 778v-96h-412v-291h-104v293h-412v94h412v289h104v-289h412zM92 272h928v-96h-928v96z" glyph-name="plusminus" horiz-adv-x="1112" unicode="±"/><glyph d="M213 1571h-121l289 393h131z" glyph-name="acute" horiz-adv-x="604" unicode="´"/><glyph d="M154 1024q0 223 101 328.5t314 105.5h570v-1929h-105v1833h-358v-1833h-107v1063q-415 -4 -415 432z" glyph-name="paragraph" horiz-adv-x="1353" unicode="¶"/><glyph d="M280 571q-38 0 -61.5 21.5t-23.5 58.5t23.5 58.5t61.5 21.5t60 -21.5t22 -58.5t-22 -58.5t-60 -21.5z" glyph-name="periodcentered" horiz-adv-x="557" unicode="·"/><glyph d="M375 -283q0 134 -283 50l135 233h107l-76 -121q100 16 161.5 -23.5t61.5 -127.5q0 -115 -112.5 -177.5t-276.5 -39.5v83q127 -16 205 19t78 104z" glyph-name="cedilla" horiz-adv-x="573" unicode="¸"/><glyph d="M688 588l-360 -424h-133l364 424l-364 424h133zM1092 588l-361 -424h-133l365 424l-365 424h133z" glyph-name="guillemotright" horiz-adv-x="1286" unicode="»"/><glyph d="M547 469v827l-279 -227l-73 70l364 295h92v-965h-104zM1538 1434l-770 -1434h-117l770 1434h117zM2095 332v-96h-190v-236h-105v236h-518v71l500 658h123v-633h190zM1800 332v502l-381 -502h381z" glyph-name="onequarter" horiz-adv-x="2289" unicode="¼"/><glyph d="M547 469v827l-279 -227l-73 70l364 295h92v-965h-104zM1538 1434l-770 -1434h-117l770 1434h117zM2200 96v-96h-742v86q399 324 497.5 421t98.5 183t-65.5 144.5t-163.5 58.5q-176 0 -287 -166l-70 76q133 186 361 186q141 0 236.5 -84t95.5 -201t-109.5 -237.5 t-431.5 -370.5h580z" glyph-name="onehalf" horiz-adv-x="2394" unicode="½"/><glyph d="M948 733q0 -125 -102.5 -207t-237.5 -82q-263 0 -413 183l65 67q129 -154 328 -153q113 0 183.5 53t70.5 137q0 188 -242 189h-166v96h148q106 0 167.5 46t61.5 124t-67.5 127t-174.5 49q-188 0 -288 -152l-64 70q129 178 352 178q147 0 246.5 -77.5t99.5 -192.5 q0 -74 -43 -130.5t-118 -84.5q90 -23 142 -85.5t52 -154.5zM1726 1434l-770 -1434h-116l770 1434h116zM2284 332v-96h-191v-236h-104v236h-519v71l500 658h123v-633h191zM1989 332v502l-381 -502h381z" glyph-name="threequarters" horiz-adv-x="2478" unicode="¾"/><glyph d="M656 991q-38 0 -60.5 21.5t-22.5 58.5t22.5 58.5t60.5 21.5t61.5 -21.5t23.5 -58.5t-23.5 -58.5t-61.5 -21.5zM596 -332q-207 0 -335 115t-128 294t132 294.5t341 130.5l17 254h69l21 -336q-221 -4 -347 -94t-126 -238t98 -236t260 -88q226 1 406 189l69 -74 q-205 -211 -477 -211z" glyph-name="questiondown" horiz-adv-x="1206" unicode="¿"/><glyph d="M643 1571l-299 393h131l289 -393h-121zM1044 489h-671l-199 -489h-113l588 1434h119l588 -1434h-113zM1006 588l-297 727l-295 -727h592z" glyph-name="Agrave" horiz-adv-x="1417" unicode="À"/><glyph d="M774 1571h-121l289 393h131zM1044 489h-671l-199 -489h-113l588 1434h119l588 -1434h-113zM1006 588l-297 727l-295 -727h592z" glyph-name="Aacute" horiz-adv-x="1417" unicode="Á"/><glyph d="M471 1571h-121l289 393h141l289 -393h-119l-239 313zM1044 489h-671l-199 -489h-113l588 1434h119l588 -1434h-113zM1006 588l-297 727l-295 -727h592z" glyph-name="Acircumflex" horiz-adv-x="1417" unicode="Â"/><glyph d="M530 1933q63 0 109.5 -28.5t102.5 -102.5t83 -97.5t64 -23.5q104 0 74 236h90q27 -162 -16.5 -246t-149.5 -84q-63 0 -109.5 28.5t-102.5 102.5t-83 97.5t-64 23.5q-104 1 -73 -235h-90q-27 162 16 245.5t149 83.5zM1044 489h-671l-199 -489h-113l588 1434h119l588 -1434 h-113zM1006 588l-297 727l-295 -727h592z" glyph-name="Atilde" horiz-adv-x="1417" unicode="Ã"/><glyph d="M519 1692q-38 0 -61.5 21.5t-23.5 59.5t23.5 58t61.5 20t60.5 -20.5t22.5 -58.5t-22.5 -59t-60.5 -21zM898 1692q-38 0 -61.5 21.5t-23.5 59.5t23.5 58t61.5 20t60.5 -20.5t22.5 -58.5t-22.5 -59t-60.5 -21zM1044 489h-671l-199 -489h-113l588 1434h119l588 -1434h-113z M1006 588l-297 727l-295 -727h592z" glyph-name="Adieresis" horiz-adv-x="1417" unicode="Ä"/><glyph d="M710 1546q-103 0 -170 62.5t-67 159.5t66.5 159t170.5 62t170 -61.5t66 -159.5t-66.5 -160t-169.5 -62zM710.5 1907q-63.5 0 -102.5 -39t-39 -100.5t39 -99.5t102.5 -38t101.5 38t38 99.5t-38 100.5t-101.5 39zM1044 489h-671l-199 -489h-113l588 1434h119l588 -1434 h-113zM1006 588l-297 727l-295 -727h592z" glyph-name="Aring" horiz-adv-x="1417" unicode="Å"/><glyph d="M819 1337v-542h746v-97h-746v-602h803v-96h-909v489h-340l-199 -489h-113l588 1434h973v-97h-803zM713 588v739l-301 -739h301z" glyph-name="AE" horiz-adv-x="1730" unicode="Æ"/><glyph d="M915 -283q0 133 -282 50l123 210q-279 23 -440.5 221.5t-161.5 510.5v16q0 330 177 531.5t472 201.5h14q160 0 302.5 -67.5t236.5 -184.5l-70 -73q-184 229 -473 229h-10q-246 0 -394.5 -175t-148.5 -460v-20q0 -279 152.5 -457t396.5 -178h10q291 0 473 233l70 -74 q-193 -242 -502 -256l-61 -96q100 16 161.5 -23.5t61.5 -127.5q0 -115 -112.5 -177.5t-276.5 -39.5v83q127 -16 204.5 19t77.5 104z" glyph-name="Ccedilla" horiz-adv-x="1468" unicode="Ç"/><glyph d="M604 1571l-299 393h131l289 -393h-121zM322 1337v-542h745v-97h-745v-602h802v-96h-909v1434h909v-97h-802z" glyph-name="Egrave" horiz-adv-x="1232" unicode="È"/><glyph d="M735 1571h-121l289 393h131zM322 1337v-542h745v-97h-745v-602h802v-96h-909v1434h909v-97h-802z" glyph-name="Eacute" horiz-adv-x="1232" unicode="É"/><glyph d="M432 1571h-121l289 393h141l289 -393h-119l-239 313zM322 1337v-542h745v-97h-745v-602h802v-96h-909v1434h909v-97h-802z" glyph-name="Ecircumflex" horiz-adv-x="1232" unicode="Ê"/><glyph d="M480 1692q-38 0 -61.5 21.5t-23.5 59.5t23.5 58t61.5 20t60.5 -20.5t22.5 -58t-22.5 -59t-60.5 -21.5zM859 1692q-38 0 -61.5 21.5t-23.5 59.5t23.5 58t61.5 20t60.5 -20.5t22.5 -58t-22.5 -59t-60.5 -21.5zM322 1337v-542h745v-97h-745v-602h802v-96h-909v1434h909v-97 h-802z" glyph-name="Edieresis" horiz-adv-x="1232" unicode="Ë"/><glyph d="M35 1964l289 -393h-121l-299 393h131zM322 1434v-1434h-107v1434h107z" glyph-name="Igrave" horiz-adv-x="536" unicode="Ì"/><glyph d="M336 1571h-121l289 393h131zM322 1434v-1434h-107v1434h107z" glyph-name="Iacute" horiz-adv-x="536" unicode="Í"/><glyph d="M629 1571h-119l-240 313l-239 -313h-121l289 393h141zM215 1434h107v-1434h-107v1434z" glyph-name="Icircumflex" horiz-adv-x="536" unicode="Î"/><glyph d="M79 1692q-38 0 -61.5 21.5t-23.5 59.5t23.5 58t61.5 20t60.5 -20.5t22.5 -58.5t-22.5 -59t-60.5 -21zM458 1692q-38 0 -61.5 21.5t-23.5 59.5t23.5 58t61.5 20t60.5 -20.5t22.5 -58.5t-22.5 -59t-60.5 -21zM322 1434v-1434h-107v1434h107z" glyph-name="Idieresis" horiz-adv-x="536" unicode="Ï"/><glyph d="M215 1434h490q293 0 472 -196t179 -513v-16q0 -317 -179.5 -513t-471.5 -196h-490v678h-231v96h231v660zM1249 707v20q0 276 -151.5 443t-397.5 167h-378v-563h317v-96h-317v-582h378q246 0 397.5 167.5t151.5 443.5z" glyph-name="Eth" horiz-adv-x="1509" unicode="Ð"/><glyph d="M578 1933q63 0 109 -28.5t102 -102.5t83 -97.5t64 -23.5q104 0 74 236h90q27 -162 -16.5 -246t-149.5 -84q-63 0 -109.5 29t-102.5 102.5t-83 97t-64 23.5q-104 1 -73 -235h-90q-27 162 16 245.5t150 83.5zM1319 1432v-1434h-107l-911 1272v-1270h-106v1434h108 l911 -1272v1270h105z" glyph-name="Ntilde" horiz-adv-x="1513" unicode="Ñ"/><glyph d="M584 1964l288 -393h-120l-299 393h131zM805 1458h24q291 0 471.5 -205.5t180.5 -527.5v-16q0 -322 -180.5 -528t-471.5 -206h-24q-291 0 -471 206t-180 528v16q0 322 180 527.5t471 205.5zM827 1362h-18q-244 0 -396.5 -178t-152.5 -457v-20q0 -279 152.5 -457 t396.5 -178h18q244 0 396.5 178t152.5 457v20q0 279 -152.5 457t-396.5 178z" glyph-name="Ograve" horiz-adv-x="1634" unicode="Ò"/><glyph d="M883 1571h-121l289 393h131zM805 1458h24q291 0 471.5 -205.5t180.5 -527.5v-16q0 -322 -180.5 -528t-471.5 -206h-24q-291 0 -471 206t-180 528v16q0 322 180 527.5t471 205.5zM827 1362h-18q-244 0 -396.5 -178t-152.5 -457v-20q0 -279 152.5 -457t396.5 -178h18 q244 0 396.5 178t152.5 457v20q0 279 -152.5 457t-396.5 178z" glyph-name="Oacute" horiz-adv-x="1634" unicode="Ó"/><glyph d="M580 1571h-121l289 393h141l289 -393h-119l-240 313zM805 1458h24q291 0 471.5 -205.5t180.5 -527.5v-16q0 -322 -180.5 -528t-471.5 -206h-24q-291 0 -471 206t-180 528v16q0 322 180 527.5t471 205.5zM1376 707v20q0 279 -152.5 457t-396.5 178h-18q-244 0 -396.5 -178 t-152.5 -457v-20q0 -279 152.5 -457t396.5 -178h18q244 0 396.5 178t152.5 457z" glyph-name="Ocircumflex" horiz-adv-x="1634" unicode="Ô"/><glyph d="M639 1933q63 0 109.5 -28.5t102.5 -102.5t83 -97.5t63 -23.5q104 0 74 236h90q27 -162 -16 -246t-150 -84q-63 0 -109 28.5t-102 102.5t-83 97.5t-64 23.5q-104 0 -74 -235h-90q-27 162 16.5 245.5t149.5 83.5zM805 1458h24q291 0 471.5 -205.5t180.5 -527.5v-16 q0 -322 -180.5 -528t-471.5 -206h-24q-291 0 -471 206t-180 528v16q0 322 180 527.5t471 205.5zM827 1362h-18q-244 0 -396.5 -178t-152.5 -457v-20q0 -279 152.5 -457t396.5 -178h18q244 0 396.5 178t152.5 457v20q0 279 -152.5 457t-396.5 178z" glyph-name="Otilde" horiz-adv-x="1634" unicode="Õ"/><glyph d="M628 1692q-38 0 -61.5 21.5t-23.5 59.5t23.5 58t61.5 20t60.5 -20.5t22.5 -58.5t-22.5 -59t-60.5 -21zM1007 1692q-38 0 -61.5 21.5t-23.5 59.5t23.5 58t61.5 20t60.5 -20.5t22.5 -58.5t-22.5 -59t-60.5 -21zM805 1458h24q291 0 471.5 -205.5t180.5 -527.5v-16 q0 -322 -180.5 -528t-471.5 -206h-24q-291 0 -471 206t-180 528v16q0 322 180 527.5t471 205.5zM827 1362h-18q-244 0 -396.5 -178t-152.5 -457v-20q0 -279 152.5 -457t396.5 -178h18q244 0 396.5 178t152.5 457v20q0 279 -152.5 457t-396.5 178z" glyph-name="Odieresis" horiz-adv-x="1634" unicode="Ö"/><glyph d="M522 666l293 -293l-67 -68l-293 293l-293 -293l-70 68l295 295l-293 293l68 67l293 -293l293 293l69 -67z" glyph-name="multiply" horiz-adv-x="909" unicode="×"/><glyph d="M1481 725v-16q0 -322 -180.5 -528t-471.5 -206h-24q-150 0 -266 56l-66 -133h-108l88 180q-141 94 -220 259t-79 372v16q0 322 180 527.5t471 205.5h24q145 0 271 -57l65 135h109l-88 -182q139 -94 217 -259t78 -370zM260 727v-20q0 -174 62.5 -313.5t175.5 -223.5 l559 1143q-111 49 -230 49h-18q-244 0 -396.5 -178t-152.5 -457zM1376 707v20q0 174 -62.5 313.5t-174.5 221.5l-557 -1141q102 -49 227 -49h18q244 0 396.5 178t152.5 457z" glyph-name="Oslash" horiz-adv-x="1634" unicode="Ø"/><glyph d="M528 1964l289 -393h-121l-299 393h131zM1307 1434v-869q0 -279 -140.5 -434.5t-392.5 -155.5h-24q-252 0 -393.5 156t-141.5 434v869h107v-871q0 -238 112.5 -364.5t317.5 -126.5h18q205 0 318.5 127t113.5 364v871h105z" glyph-name="Ugrave" horiz-adv-x="1501" unicode="Ù"/><glyph d="M827 1571h-120l288 393h131zM1307 1434v-869q0 -279 -140.5 -434.5t-392.5 -155.5h-24q-252 0 -393.5 156t-141.5 434v869h107v-871q0 -238 112.5 -364.5t317.5 -126.5h18q205 0 318.5 127t113.5 364v871h105z" glyph-name="Uacute" horiz-adv-x="1501" unicode="Ú"/><glyph d="M522 1571h-121l289 393h141l289 -393h-119l-239 313zM1307 1434v-869q0 -279 -140.5 -434.5t-392.5 -155.5h-24q-252 0 -393.5 156t-141.5 434v869h107v-871q0 -238 112.5 -364.5t317.5 -126.5h18q205 0 318.5 127t113.5 364v871h105z" glyph-name="Ucircumflex" horiz-adv-x="1501" unicode="Û"/><glyph d="M572 1692q-38 0 -61.5 21.5t-23.5 59.5t23.5 58t61.5 20t60.5 -20.5t22.5 -58.5t-22.5 -59t-60.5 -21zM951 1692q-38 0 -61.5 21.5t-23.5 59.5t23.5 58t61.5 20t60.5 -20.5t22.5 -58.5t-22.5 -59t-60.5 -21zM1307 1434v-869q0 -279 -140.5 -434.5t-392.5 -155.5h-24 q-252 0 -393.5 156t-141.5 434v869h107v-871q0 -238 112.5 -364.5t317.5 -126.5h18q205 0 318.5 127t113.5 364v871h105z" glyph-name="Udieresis" horiz-adv-x="1501" unicode="Ü"/><glyph d="M723 1571h-121l289 393h131zM709 0h-105v516l-532 918h121l462 -807l467 807h121l-534 -918v-516z" glyph-name="Yacute" horiz-adv-x="1314" unicode="Ý"/><glyph d="M322 1247h460q465 0 465 -416v-8q0 -414 -461 -413h-464v-410h-107v1434h107v-187zM322 506h469q195 0 272.5 83t77.5 237t-80 239.5t-273 85.5h-466v-645z" glyph-name="Thorn" horiz-adv-x="1384" unicode="Þ"/><glyph d="M1155 420q0 -205 -122 -312.5t-357 -107.5h-252v96h252q375 0 375 322q0 303 -414 303h-139v96h110q178 0 280.5 79t102.5 215t-94 214t-253 78t-251 -84t-92 -219v-1100h-106v1094q0 182 121.5 293.5t326.5 111.5t329 -106.5t124 -282.5q0 -111 -62.5 -198t-175.5 -132 q143 -37 220 -131t77 -229z" glyph-name="germandbls" horiz-adv-x="1263" unicode="ß"/><glyph d="M535 1264l-299 393h131l288 -393h-120zM608 1151h8q401 0 402 -416v-735h-107v256q-55 -129 -170.5 -205t-259.5 -76h-4q-166 0 -265 90.5t-99 241.5q0 197 194.5 290t603.5 95v56q0 307 -301 307h-10q-221 0 -367 -162l-65 70q166 188 440 188zM483 72q184 0 306 139 t122 348v41q-358 -2 -525 -72.5t-167 -222.5q0 -109 70.5 -171t193.5 -62z" glyph-name="agrave" horiz-adv-x="1191" unicode="à"/><glyph d="M666 1264h-121l289 393h131zM608 1151h8q401 0 402 -416v-735h-107v256q-55 -129 -170.5 -205t-259.5 -76h-4q-166 0 -265 90.5t-99 241.5q0 197 194.5 290t603.5 95v56q0 307 -301 307h-10q-221 0 -367 -162l-65 70q166 188 440 188zM483 72q184 0 306 139t122 348v41 q-358 -2 -525 -72.5t-167 -222.5q0 -109 70.5 -171t193.5 -62z" glyph-name="aacute" horiz-adv-x="1191" unicode="á"/><glyph d="M360 1264h-120l288 393h142l288 -393h-118l-240 313zM608 1151h8q401 0 402 -416v-735h-107v256q-55 -129 -170.5 -205t-259.5 -76h-4q-166 0 -265 90.5t-99 241.5q0 197 194.5 290t603.5 95v56q0 307 -301 307h-10q-221 0 -367 -162l-65 70q166 188 440 188zM483 72 q184 0 306 139t122 348v41q-358 -2 -525 -72.5t-167 -222.5q0 -109 70.5 -171t193.5 -62z" glyph-name="acircumflex" horiz-adv-x="1191" unicode="â"/><glyph d="M422 1626q63 0 109.5 -28.5t102.5 -102.5t82.5 -97.5t63.5 -23.5q104 0 74 236h90q27 -162 -16 -246t-150 -84q-63 0 -109.5 28.5t-102.5 102.5t-82.5 97.5t-63.5 23.5q-105 0 -74 -236h-90q-27 162 16 246t150 84zM608 1151h8q401 0 402 -416v-735h-107v256 q-55 -129 -170.5 -205t-259.5 -76h-4q-166 0 -265 90.5t-99 241.5q0 197 194.5 290t603.5 95v56q0 307 -301 307h-10q-221 0 -367 -162l-65 70q166 188 440 188zM483 72q184 0 306 139t122 348v41q-358 -2 -525 -72.5t-167 -222.5q0 -109 70.5 -171t193.5 -62z" glyph-name="atilde" horiz-adv-x="1191" unicode="ã"/><glyph d="M411 1384q-38 0 -61.5 21.5t-23.5 59.5t23.5 58.5t61.5 20.5t60.5 -20.5t22.5 -58.5t-22.5 -59.5t-60.5 -21.5zM790 1384q-38 0 -61.5 21.5t-23.5 59.5t23.5 58.5t61.5 20.5t60 -20.5t22 -58.5t-22 -59.5t-60 -21.5zM608 1151h8q401 0 402 -416v-735h-107v256 q-55 -129 -170.5 -205t-259.5 -76h-4q-166 0 -265 90.5t-99 241.5q0 197 194.5 290t603.5 95v56q0 307 -301 307h-10q-221 0 -367 -162l-65 70q166 188 440 188zM483 72q184 0 306 139t122 348v41q-358 -2 -525 -72.5t-167 -222.5q0 -109 70.5 -171t193.5 -62z" glyph-name="adieresis" horiz-adv-x="1191" unicode="ä"/><glyph d="M599 1239q-103 0 -170 62.5t-67 159.5t67 158.5t170 61.5t170 -60.5t67 -158.5t-67 -160.5t-170 -62.5zM600.5 1599q-63.5 0 -102.5 -38.5t-39 -100t39 -99.5t102.5 -38t101 38t37.5 99.5t-37.5 100t-101 38.5zM608 1151h8q401 0 402 -416v-735h-107v256 q-55 -129 -170.5 -205t-259.5 -76h-4q-166 0 -265 90.5t-99 241.5q0 197 194.5 290t603.5 95v56q0 307 -301 307h-10q-221 0 -367 -162l-65 70q166 188 440 188zM483 72q184 0 306 139t122 348v41q-358 -2 -525 -72.5t-167 -222.5q0 -109 70.5 -171t193.5 -62z" glyph-name="aring" horiz-adv-x="1191" unicode="å"/><glyph d="M1948 518h-928q10 -203 128 -324.5t300 -121.5h12q231 0 373 176l65 -70q-164 -203 -442 -203q-182 0 -314 90.5t-190 249.5q-57 -154 -185 -247t-286 -93h-4q-166 0 -265 91.5t-99 240.5q0 199 193.5 291t604.5 94v56q0 307 -301 307h-10q-221 0 -367 -162l-65 70 q166 188 440 188h8q305 0 379 -246q143 246 439 246h12q233 0 367.5 -163t134.5 -419v-51zM1446 1055h-12q-176 0 -289 -121t-125 -320h823q-12 201 -117.5 321t-279.5 120zM481 72h2q184 0 306 139t122 348v41q-360 -2 -526 -72.5t-166 -222.5q0 -109 70.5 -171t191.5 -62z " glyph-name="ae" horiz-adv-x="2050" unicode="æ"/><glyph d="M741 -283q0 133 -282 50l123 213q-215 20 -342 177.5t-127 399.5v12q0 256 145 419t383 163h12q127 0 239 -53.5t189 -147.5l-65 -71q-66 82 -161 129t-202 47h-12q-190 0 -306 -135.5t-116 -352.5v-8q0 -217 116 -352t306 -135h12q106 0 201.5 47t161.5 129l65 -70 q-150 -188 -395 -201l-61 -98q100 16 161.5 -23.5t61.5 -127.5q0 -115 -112.5 -177.5t-276.5 -39.5v83q127 -16 204.5 19t77.5 104z" glyph-name="ccedilla" horiz-adv-x="1183" unicode="ç"/><glyph d="M575 1264l-299 393h132l288 -393h-121zM1149 518h-928q10 -203 127 -324.5t301 -121.5h13q231 0 372 176l66 -70q-162 -203 -428 -203t-412.5 158t-146.5 424v12q0 260 145 421t377 161h12q227 0 364.5 -158.5t137.5 -423.5v-51zM647 1055h-12q-176 0 -289 -120 t-125 -321h823q-12 203 -118.5 322t-278.5 119z" glyph-name="egrave" unicode="è"/><glyph d="M707 1264h-121l288 393h132zM1149 518h-928q10 -203 127 -324.5t301 -121.5h13q231 0 372 176l66 -70q-162 -203 -428 -203t-412.5 158t-146.5 424v12q0 260 145 421t377 161h12q227 0 364.5 -158.5t137.5 -423.5v-51zM647 1055h-12q-176 0 -289 -120t-125 -321h823 q-12 203 -118.5 322t-278.5 119z" glyph-name="eacute" unicode="é"/><glyph d="M401 1264h-120l288 393h142l288 -393h-118l-240 313zM1149 518h-928q10 -203 127 -324.5t301 -121.5h13q231 0 372 176l66 -70q-162 -203 -428 -203t-412.5 158t-146.5 424v12q0 260 145 421t377 161h12q227 0 364.5 -158.5t137.5 -423.5v-51zM647 1055h-12 q-176 0 -289 -120t-125 -321h823q-12 203 -118.5 322t-278.5 119z" glyph-name="ecircumflex" unicode="ê"/><glyph d="M452 1384q-38 0 -61.5 21.5t-23.5 59.5t23.5 58.5t61.5 20.5t60.5 -20.5t22.5 -58.5t-22.5 -59.5t-60.5 -21.5zM830 1384q-38 0 -61.5 21.5t-23.5 59.5t24 58.5t61.5 20.5t60 -20.5t22.5 -58.5t-22.5 -59.5t-60.5 -21.5zM1149 518h-928q10 -203 127 -324.5t301 -121.5h13 q231 0 372 176l66 -70q-162 -203 -427.5 -203t-412.5 158t-147 424v12q0 260 145 421t377 161h12q227 0 364.5 -158.5t137.5 -423.5v-51zM647 1055h-12q-176 0 -289 -120t-125 -321h823q-12 203 -118.5 322t-278.5 119z" glyph-name="edieresis" unicode="ë"/><glyph d="M14 1657l289 -393h-121l-299 393h131zM301 0h-106v1126h106v-1126z" glyph-name="igrave" horiz-adv-x="485" unicode="ì"/><glyph d="M313 1264h-120l288 393h131zM301 0h-106v1126h106v-1126z" glyph-name="iacute" horiz-adv-x="485" unicode="í"/><glyph d="M606 1264h-119l-239 313l-240 -313h-121l289 393h141zM195 1126h106v-1126h-106v1126z" glyph-name="icircumflex" horiz-adv-x="485" unicode="î"/><glyph d="M58 1384q-38 0 -61.5 21.5t-23.5 59.5t23.5 58.5t61.5 20.5t60.5 -20.5t22.5 -58.5t-22.5 -59.5t-60.5 -21.5zM437 1384q-38 0 -61.5 21.5t-23.5 59.5t23.5 58.5t61.5 20.5t60.5 -20.5t22.5 -58.5t-22.5 -59.5t-60.5 -21.5zM301 0h-106v1126h106v-1126z" glyph-name="idieresis" horiz-adv-x="485" unicode="ï"/><glyph d="M1126 534q0 -248 -141 -403.5t-363 -155.5t-365.5 141.5t-143.5 347.5t128 338t328 132q127 0 241 -54.5t194 -148.5q-66 330 -336 529l-176 -189l-76 59l172 185q-106 66 -252 115l65 69q129 -37 254 -113l138 148l75 -59l-133 -142q184 -139 287.5 -345t103.5 -454z M1022 530v48q-172 260 -453 260q-160 0 -255 -103.5t-95 -275.5v-4q0 -160 113.5 -271.5t275.5 -111.5h6q184 0 296 126t112 332z" glyph-name="eth" horiz-adv-x="1239" unicode="ð"/><glyph d="M455 1626q63 0 109 -28.5t102.5 -102.5t83 -97.5t63.5 -23.5q104 0 74 236h90q27 -162 -16 -246t-150 -84q-63 0 -109.5 28.5t-102.5 102.5t-83 97.5t-63 23.5q-105 0 -74 -236h-90q-27 162 16 246t150 84zM684 1151h8q193 0 296.5 -114.5t103.5 -321.5v-715h-107v715 q0 164 -75.5 252t-225.5 88h-8q-170 0 -277.5 -136.5t-107.5 -351.5v-567h-107v1126h107v-233q53 121 156.5 189.5t236.5 68.5z" glyph-name="ntilde" horiz-adv-x="1265" unicode="ñ"/><glyph d="M412 1657l288 -393h-120l-299 393h131zM639 1151h12q236 0 380.5 -164t144.5 -418v-12q0 -254 -144.5 -418t-380.5 -164h-12q-238 0 -382 164t-144 418v12q0 254 144 418t382 164zM651 1055h-12q-188 0 -304 -135.5t-116 -352.5v-8q0 -217 117 -352t303 -135h12 q186 0 303 135t117 352v8q0 217 -116 352.5t-304 135.5z" glyph-name="ograve" horiz-adv-x="1288" unicode="ò"/><glyph d="M711 1264h-121l289 393h131zM639 1151h12q236 0 380.5 -164t144.5 -418v-12q0 -254 -144.5 -418t-380.5 -164h-12q-238 0 -382 164t-144 418v12q0 254 144 418t382 164zM651 1055h-12q-188 0 -304 -135.5t-116 -352.5v-8q0 -217 117 -352t303 -135h12q186 0 303 135 t117 352v8q0 217 -116 352.5t-304 135.5z" glyph-name="oacute" horiz-adv-x="1288" unicode="ó"/><glyph d="M406 1264h-121l288 393h142l289 -393h-119l-240 313zM639 1151h12q236 0 380.5 -164t144.5 -418v-12q0 -254 -144.5 -418t-380.5 -164h-12q-238 0 -382 164t-144 418v12q0 254 144 418t382 164zM1071 559v8q0 217 -115.5 352.5t-304.5 135.5h-12q-188 0 -304 -135.5 t-116 -352.5v-8q0 -217 117 -352t303 -135h12q186 0 303 135t117 352z" glyph-name="ocircumflex" horiz-adv-x="1288" unicode="ô"/><glyph d="M467 1626q63 0 109.5 -28.5t102.5 -102.5t82.5 -97.5t63.5 -23.5q104 0 74 236h90q27 -162 -16 -246t-150 -84q-63 0 -109 28.5t-102 102.5t-83 97.5t-64 23.5q-104 0 -74 -236h-90q-27 162 16.5 246t149.5 84zM639 1151h12q236 0 380.5 -164t144.5 -418v-12 q0 -254 -144.5 -418t-380.5 -164h-12q-238 0 -382 164t-144 418v12q0 254 144 418t382 164zM651 1055h-12q-188 0 -304 -135.5t-116 -352.5v-8q0 -217 117 -352t303 -135h12q186 0 303 135t117 352v8q0 217 -116 352.5t-304 135.5z" glyph-name="otilde" horiz-adv-x="1288" unicode="õ"/><glyph d="M456 1384q-38 0 -61.5 21.5t-23.5 59.5t23.5 58.5t61.5 20.5t60.5 -20.5t22.5 -58.5t-22.5 -59.5t-60.5 -21.5zM835 1384q-38 0 -61.5 21.5t-23.5 59.5t23.5 58.5t61.5 20.5t60.5 -20.5t22.5 -58.5t-22.5 -59.5t-60.5 -21.5zM639 1151h12q236 0 380.5 -164t144.5 -418 v-12q0 -254 -144.5 -418t-380.5 -164h-12q-238 0 -382 164t-144 418v12q0 254 144 418t382 164zM651 1055h-12q-188 0 -304 -135.5t-116 -352.5v-8q0 -217 117 -352t303 -135h12q186 0 303 135t117 352v8q0 217 -116 352.5t-304 135.5z" glyph-name="odieresis" horiz-adv-x="1288" unicode="ö"/><glyph d="M557 1106q37 0 60.5 -21.5t23.5 -58.5t-23.5 -58.5t-60.5 -21.5t-60.5 21.5t-23.5 58.5t23.5 58.5t60.5 21.5zM1020 618h-928v97h928v-97zM557 389q37 0 60.5 -21.5t23.5 -58.5t-23.5 -58.5t-60.5 -21.5t-60.5 21.5t-23.5 58.5t23.5 58.5t60.5 21.5z" glyph-name="divide" horiz-adv-x="1112" unicode="÷"/><glyph d="M1176 569v-12q0 -254 -144.5 -418t-380.5 -164h-12q-51 0 -109 11l-59 -211h-100l67 237q-152 61 -238.5 207t-86.5 338v12q0 254 144 418t382 164h12q51 0 109 -10l59 211h101l-68 -238q152 -61 238 -205.5t86 -339.5zM219 567v-8q0 -160 65.5 -278.5t180.5 -171.5 l268 938q-35 8 -82 8h-12q-188 0 -304 -135.5t-116 -352.5zM1071 559v8q0 162 -65.5 280t-182.5 171l-266 -938q35 -8 82 -8h12q186 0 303 135t117 352z" glyph-name="oslash" horiz-adv-x="1288" unicode="ø"/><glyph d="M545 1264l-299 393h131l289 -393h-121zM1061 1126v-1126h-107v236q-53 -121 -154.5 -191t-234.5 -70h-2q-186 0 -287.5 115t-101.5 316v720h107v-720q0 -158 74.5 -246t215.5 -88h2q168 0 274.5 137t106.5 350v567h107z" glyph-name="ugrave" horiz-adv-x="1234" unicode="ù"/><glyph d="M676 1264h-121l289 393h131zM1061 1126v-1126h-107v236q-53 -121 -154.5 -191t-234.5 -70h-2q-186 0 -287.5 115t-101.5 316v720h107v-720q0 -158 74.5 -246t215.5 -88h2q168 0 274.5 137t106.5 350v567h107z" glyph-name="uacute" horiz-adv-x="1234" unicode="ú"/><glyph d="M373 1264h-121l289 393h141l289 -393h-119l-240 313zM1061 1126v-1126h-107v236q-53 -121 -154.5 -191t-234.5 -70h-2q-186 0 -287.5 115t-101.5 316v720h107v-720q0 -158 74.5 -246t215.5 -88h2q168 0 274.5 137t106.5 350v567h107z" glyph-name="ucircumflex" horiz-adv-x="1234" unicode="û"/><glyph d="M421 1384q-38 0 -61.5 21.5t-23.5 59.5t23.5 58.5t61.5 20.5t60.5 -20.5t22.5 -58.5t-22.5 -59.5t-60.5 -21.5zM800 1384q-38 0 -61.5 21.5t-23.5 59.5t23.5 58.5t61.5 20.5t60.5 -20.5t22.5 -58.5t-22.5 -59.5t-60.5 -21.5zM1061 1126v-1126h-107v236 q-53 -121 -154.5 -191t-234.5 -70h-2q-186 0 -287.5 115t-101.5 316v720h107v-720q0 -158 74.5 -246t215.5 -88h2q168 0 274.5 137t106.5 350v567h107z" glyph-name="udieresis" horiz-adv-x="1234" unicode="ü"/><glyph d="M637 1264h-121l289 393h131zM259 -496q-95 0 -177 82l65 72q63 -57 117 -57t99 59t108 223l45 117h-22l-443 1126h113l395 -1015l393 1015h113l-506 -1286q-74 -188 -139.5 -262t-160.5 -74z" glyph-name="yacute" horiz-adv-x="1116" unicode="ý"/><glyph d="M729 1151h12q229 0 369.5 -164t140.5 -418v-12q0 -254 -140 -418t-370 -164h-12q-141 0 -256 70t-172 193v-709h-106v1946h106v-584q57 123 172 191.5t256 68.5zM1147 559v8q0 217 -117 352.5t-301 135.5h-12q-184 0 -300 -135.5t-116 -352.5v-8q0 -215 117 -351 t299 -136h12q184 0 301 136t117 351z" glyph-name="thorn" horiz-adv-x="1363" unicode="þ"/><glyph d="M382 1384q-38 0 -61.5 21.5t-23.5 59.5t23.5 58.5t61.5 20.5t60.5 -20.5t22.5 -58.5t-22.5 -59.5t-60.5 -21.5zM761 1384q-38 0 -61.5 21.5t-23.5 59.5t23.5 58.5t61.5 20.5t60.5 -20.5t22.5 -58.5t-22.5 -59.5t-60.5 -21.5zM259 -496q-95 0 -177 82l65 72 q63 -57 117 -57t99 59t108 223l45 117h-22l-443 1126h113l395 -1015l393 1015h113l-506 -1286q-74 -188 -139.5 -262t-160.5 -74z" glyph-name="ydieresis" horiz-adv-x="1116" unicode="ÿ"/><glyph d="M965 1690h-512v96h512v-96zM1044 489h-671l-199 -489h-113l588 1434h119l588 -1434h-113zM1006 588l-297 727l-295 -727h592z" glyph-name="Amacron" horiz-adv-x="1417" unicode="Ā"/><glyph d="M856 1382h-512v97h512v-97zM608 1151h8q401 0 402 -416v-735h-107v256q-55 -129 -170.5 -205t-259.5 -76h-4q-166 0 -265 90.5t-99 241.5q0 197 194.5 290t603.5 95v56q0 307 -301 307h-10q-221 0 -367 -162l-65 70q166 188 440 188zM483 72q184 0 306 139t122 348v41 q-358 -2 -525 -72.5t-167 -222.5q0 -109 70.5 -171t193.5 -62z" glyph-name="amacron" horiz-adv-x="1191" unicode="ā"/><glyph d="M708.5 1575q-161.5 0 -263 105.5t-111.5 283.5h98q14 -139 88 -216t190 -77t188.5 77t88.5 216h96q-10 -178 -111.5 -283.5t-263 -105.5zM1044 489h-671l-199 -489h-113l588 1434h119l588 -1434h-113zM1006 588l-297 727l-295 -727h592z" glyph-name="Abreve" horiz-adv-x="1417" unicode="Ă"/><glyph d="M600 1268q-162 0 -263 105.5t-112 283.5h99q14 -139 87.5 -216t189.5 -77t188.5 77t89.5 216h96q-10 -178 -111.5 -283.5t-263.5 -105.5zM608 1151h8q401 0 402 -416v-735h-107v256q-55 -129 -170.5 -205t-259.5 -76h-4q-166 0 -265 90.5t-99 241.5q0 197 194.5 290 t603.5 95v56q0 307 -301 307h-10q-221 0 -367 -162l-65 70q166 188 440 188zM483 72q184 0 306 139t122 348v41q-358 -2 -525 -72.5t-167 -222.5q0 -109 70.5 -171t193.5 -62z" glyph-name="abreve" horiz-adv-x="1191" unicode="ă"/><glyph d="M1112 -293q0 -82 68.5 -107.5t175.5 17.5v-86q-70 -27 -154 -27t-140 50.5t-56 140.5q0 164 233 317l-195 477h-671l-199 -489h-113l588 1434h119l588 -1434q-244 -164 -244 -293zM1006 588l-297 727l-295 -727h592z" glyph-name="Aogonek" horiz-adv-x="1417" unicode="Ą"/><glyph d="M1018 735v-735q-244 -164 -244 -293q0 -82 67.5 -107.5t176.5 17.5v-86q-70 -27 -154 -27t-140 50.5t-56 140.5q0 170 243 323v238q-55 -129 -170.5 -205t-259.5 -76h-4q-166 0 -265 90.5t-99 241.5q0 197 194.5 290t603.5 95v56q0 307 -301 307h-10q-221 0 -367 -162 l-65 70q166 188 440 188h8q402 0 402 -416zM483 72q184 0 306 139t122 348v41q-358 -2 -525 -72.5t-167 -222.5q0 -109 70.5 -171t193.5 -62z" glyph-name="aogonek" horiz-adv-x="1191" unicode="ą"/><glyph d="M874 1571h-120l288 393h132zM803 1458h14q160 0 302.5 -67.5t236.5 -184.5l-70 -73q-184 229 -473 229h-10q-246 0 -394.5 -175t-148.5 -460v-20q0 -279 152.5 -457t396.5 -178h10q291 0 473 233l70 -74q-206 -256 -526 -256t-501 202t-181 532v16q0 330 177 531.5 t472 201.5z" glyph-name="Cacute" horiz-adv-x="1468" unicode="Ć"/><glyph d="M711 1264h-121l289 393h131zM641 1151h12q127 0 239 -53.5t189 -147.5l-65 -71q-66 82 -161 129t-202 47h-12q-190 0 -306 -135.5t-116 -352.5v-8q0 -217 116 -352t306 -135h12q106 0 201.5 47t161.5 129l65 -70q-164 -203 -420 -203t-402 160t-146 422v12q0 256 145 419 t383 163z" glyph-name="cacute" horiz-adv-x="1183" unicode="ć"/><glyph d="M810 1692q-38 0 -61.5 21.5t-23.5 59.5t23.5 58t61.5 20t60.5 -20.5t22.5 -58t-22.5 -59t-60.5 -21.5zM803 1458h14q160 0 302.5 -67.5t236.5 -184.5l-70 -73q-184 229 -473 229h-10q-246 0 -394.5 -175t-148.5 -460v-20q0 -279 152.5 -457t396.5 -178h10q291 0 473 233 l70 -74q-207 -256 -526.5 -256t-500.5 202t-181 532v16q0 330 177 531.5t472 201.5z" glyph-name="Cdotaccent" horiz-adv-x="1468" unicode="Ċ"/><glyph d="M646 1384q-38 0 -61.5 21.5t-23.5 59.5t23.5 58.5t61.5 20.5t60.5 -20.5t22.5 -58.5t-22.5 -59.5t-60.5 -21.5zM641 1151h12q127 0 239 -53.5t189 -147.5l-65 -71q-66 82 -161 129t-202 47h-12q-190 0 -306 -135.5t-116 -352.5v-8q0 -217 116 -352t306 -135h12 q106 0 201.5 47t161.5 129l65 -70q-164 -203 -420 -203t-402 160t-146 422v12q0 256 145 419t383 163z" glyph-name="cdotaccent" horiz-adv-x="1183" unicode="ċ"/><glyph d="M739 1571l-288 393h120l240 -313l240 313h118l-288 -393h-142zM835.5 -25q-319.5 0 -500.5 202t-181 532v16q0 330 177 531.5t472 201.5h14q160 0 302.5 -67.5t236.5 -184.5l-70 -73q-184 229 -473 229h-10q-246 0 -394.5 -175t-148.5 -460v-20q0 -279 152.5 -457 t396.5 -178h10q291 0 473 233l70 -74q-207 -256 -526.5 -256z" glyph-name="Ccaron" horiz-adv-x="1468" unicode="Č"/><glyph d="M575 1264l-288 393h121l239 -314l240 314h119l-289 -393h-142zM641 72h12q106 0 201.5 47t161.5 129l65 -70q-164 -203 -420 -203t-402 160t-146 422v12q0 256 145 419t383 163h12q127 0 239 -53.5t189 -147.5l-65 -71q-66 82 -161 129t-202 47h-12q-190 0 -306 -135.5 t-116 -352.5v-8q0 -217 116 -352t306 -135z" glyph-name="ccaron" horiz-adv-x="1183" unicode="č"/><glyph d="M633 1571l-289 393h121l240 -313l239 313h119l-289 -393h-141zM215 1434h490q293 0 472 -196t179 -513v-16q0 -317 -179.5 -513t-471.5 -196h-490v1434zM1249 707v20q0 276 -151.5 443t-397.5 167h-378v-1241h378q246 0 397.5 167.5t151.5 443.5z" glyph-name="Dcaron" horiz-adv-x="1509" unicode="Ď"/><glyph d="M1455 1499q40 0 64.5 -27.5t24.5 -83.5t-47 -162t-119 -198l-65 51q102 162 127 264q-70 10 -70 78q0 35 22.5 56.5t62.5 21.5zM1065 1454h104v-1454h-104v242q-57 -125 -172 -196t-258 -71h-12q-227 0 -368.5 164t-141.5 418v12q0 254 141 418t369 164h12 q145 0 259 -69.5t171 -194.5v567zM635 72h12q184 0 301 136t117 351v8q0 217 -117 352.5t-301 135.5h-12q-184 0 -300 -135.5t-116 -352.5v-8q0 -215 117 -351t299 -136z" glyph-name="dcaron" horiz-adv-x="1595" unicode="ď"/><glyph d="M215 1434h490q293 0 472 -196t179 -513v-16q0 -317 -179.5 -513t-471.5 -196h-490v678h-231v96h231v660zM1249 707v20q0 276 -151.5 443t-397.5 167h-378v-563h317v-96h-317v-582h378q246 0 397.5 167.5t151.5 443.5z" glyph-name="Dcroat" horiz-adv-x="1509" unicode="Đ"/><glyph d="M1346 1206h-177v-1206h-104v242q-57 -125 -172 -196t-258 -71h-12q-227 0 -368.5 164t-141.5 418v12q0 254 141 418t369 164h12q145 0 259 -69.5t171 -194.5v319h-231v97h231v151h104v-151h177v-97zM635 72h12q184 0 301 136t117 351v8q0 217 -117 352.5t-301 135.5h-12 q-184 0 -300 -135.5t-116 -352.5v-8q0 -215 117 -351t299 -136z" glyph-name="dcroat" horiz-adv-x="1458" unicode="đ"/><glyph d="M926 1690h-512v96h512v-96zM322 1337v-542h745v-97h-745v-602h802v-96h-909v1434h909v-97h-802z" glyph-name="Emacron" horiz-adv-x="1232" unicode="Ē"/><glyph d="M897 1382h-512v97h512v-97zM1149 518h-928q10 -203 127 -324.5t301 -121.5h13q231 0 372 176l66 -70q-162 -203 -428 -203t-412.5 158t-146.5 424v12q0 260 145 421t377 161h12q227 0 364.5 -158.5t137.5 -423.5v-51zM647 1055h-12q-176 0 -289 -120t-125 -321h823 q-12 203 -118.5 322t-278.5 119z" glyph-name="emacron" unicode="ē"/><glyph d="M671 1692q-38 0 -61.5 21.5t-23.5 59.5t23.5 58t61.5 20t60.5 -20.5t22.5 -58t-22.5 -59t-60.5 -21.5zM322 1337v-542h745v-97h-745v-602h802v-96h-909v1434h909v-97h-802z" glyph-name="Edotaccent" horiz-adv-x="1232" unicode="Ė"/><glyph d="M640 1384q-38 0 -61.5 21.5t-23.5 59.5t23.5 58.5t61.5 20.5t60.5 -20.5t22.5 -58.5t-22.5 -59.5t-60.5 -21.5zM1149 518h-928q10 -203 127 -324.5t301 -121.5h13q231 0 372 176l66 -70q-162 -203 -427.5 -203t-412.5 158t-147 424v12q0 260 145 421t377 161h12 q227 0 364.5 -158.5t137.5 -423.5v-51zM647 1055h-12q-176 0 -289 -120t-125 -321h823q-12 203 -118.5 322t-278.5 119z" glyph-name="edotaccent" unicode="ė"/><glyph d="M883 -293q0 -82 68.5 -107.5t174.5 17.5v-86q-70 -27 -154 -27t-140 50.5t-56 140.5q0 160 215 305h-776v1434h909v-97h-802v-542h745v-97h-745v-602h802v-94l2 -2q-243 -164 -243 -293z" glyph-name="Eogonek" horiz-adv-x="1232" unicode="Ę"/><glyph d="M1149 518h-928q10 -203 127 -324.5t301 -121.5h13q231 0 372 176l66 -70q-106 -131 -271 -178q-242 -166 -241 -293q0 -82 68.5 -107.5t174.5 17.5v-86q-69 -27 -153 -27t-140.5 50.5t-56.5 140.5q0 145 181 280h-5q-250 0 -397 158t-147 424v12q0 260 145 421t377 161 h12q227 0 364.5 -158.5t137.5 -423.5v-51zM647 1055h-12q-176 0 -289 -120t-125 -321h823q-12 203 -118.5 322t-278.5 119z" glyph-name="eogonek" unicode="ę"/><glyph d="M600 1571l-289 393h121l240 -313l239 313h119l-289 -393h-141zM322 1337v-542h745v-97h-745v-602h802v-96h-909v1434h909v-97h-802z" glyph-name="Ecaron" horiz-adv-x="1232" unicode="Ě"/><glyph d="M569 1264l-288 393h120l240 -314l240 314h118l-288 -393h-142zM1149 518h-928q10 -203 127 -324.5t301 -121.5h13q231 0 372 176l66 -70q-162 -203 -428 -203t-412.5 158t-146.5 424v12q0 260 145 421t377 161h12q227 0 364.5 -158.5t137.5 -423.5v-51zM647 1055h-12 q-176 0 -289 -120t-125 -321h823q-12 203 -118.5 322t-278.5 119z" glyph-name="ecaron" unicode="ě"/><glyph d="M805 1575q-162 0 -263.5 105.5t-111.5 283.5h98q14 -139 88 -216t190 -77t188.5 77t88.5 216h97q-10 -178 -111.5 -283.5t-263.5 -105.5zM1417 743v-743h-106v299q-66 -156 -198 -240t-306 -84q-293 0 -473 205t-180 529v16q0 330 177 531.5t472 201.5h14 q160 0 302.5 -67.5t236.5 -184.5l-70 -73q-184 229 -473 229h-10q-246 0 -394.5 -175t-148.5 -460v-20q0 -281 150 -458q152 -177 384 -177t374.5 154.5t142.5 408.5v12h-514v96h620z" glyph-name="Gbreve" horiz-adv-x="1581" unicode="Ğ"/><glyph d="M661.5 1268q-161.5 0 -263 105.5t-111.5 283.5h98q14 -139 88 -216t190 -77t188.5 77t88.5 216h96q-10 -178 -111.5 -283.5t-263 -105.5zM1169 1126v-1079q0 -250 -138 -396.5t-374 -146.5q-291 0 -469 197l66 72q158 -172 401 -172q190 0 300 119.5t110 326.5v195 q-57 -125 -172 -196t-258 -71h-12q-227 0 -368.5 164t-141.5 418v12q0 254 141 418t369 164h12q145 0 259 -69.5t171 -194.5v239h104zM635 72h12q184 0 301 136t117 351v8q0 217 -117 352.5t-301 135.5h-12q-184 0 -300 -135.5t-116 -352.5v-8q0 -215 117 -351t299 -136z " glyph-name="gbreve" horiz-adv-x="1343" unicode="ğ"/><glyph d="M804 1692q-38 0 -61.5 21.5t-23.5 59.5t23.5 58t61.5 20t60.5 -20.5t22.5 -58t-22.5 -59t-60.5 -21.5zM1417 743v-743h-106v299q-66 -156 -198 -240t-306 -84q-293 0 -473 205t-180 529v16q0 330 177 531.5t472 201.5h14q160 0 302.5 -67.5t236.5 -184.5l-70 -73 q-184 229 -473 229h-10q-246 0 -394.5 -175t-148.5 -460v-20q0 -281 150.5 -458t383 -177t375 154.5t142.5 408.5v12h-514v96h620z" glyph-name="Gdotaccent" horiz-adv-x="1581" unicode="Ġ"/><glyph d="M663 1384q-38 0 -61.5 21.5t-23.5 59.5t23.5 58.5t61.5 20.5t60 -20.5t22 -58.5t-22 -59.5t-60 -21.5zM1169 1126v-1079q0 -250 -138 -396.5t-374 -146.5q-291 0 -469 197l66 72q158 -172 401 -172q190 0 300 119.5t110 326.5v195q-57 -125 -172 -196t-258 -71h-12 q-227 0 -368.5 164t-141.5 418v12q0 254 141 418t369 164h12q145 0 259 -69.5t171 -194.5v239h104zM635 72h12q184 0 301 136t117 351v8q0 217 -117 352.5t-301 135.5h-12q-184 0 -300 -135.5t-116 -352.5v-8q0 -215 117 -351t299 -136z" glyph-name="gdotaccent" horiz-adv-x="1343" unicode="ġ"/><glyph d="M1417 743v-743h-106v299q-66 -156 -198 -240t-306 -84q-293 0 -473 205t-180 529v16q0 330 177 531.5t472 201.5h14q160 0 302.5 -67.5t236.5 -184.5l-70 -73q-184 229 -473 229h-10q-246 0 -394.5 -175t-148.5 -460v-20q0 -281 150 -458q152 -177 384 -177t374.5 154.5 t142.5 408.5v12h-514v96h620zM838 -168q40 0 64 -28t24 -84t-47.5 -161.5t-116.5 -197.5l-68 49q102 158 127 266q-70 6 -69 76q0 37 23.5 58.5t62.5 21.5z" glyph-name="Gcommaaccent" horiz-adv-x="1581" unicode="Ģ"/><glyph d="M650 1384q-40 0 -64.5 29t-24.5 85t47 160.5t119 196.5l66 -49q-102 -166 -127 -266q70 -6 69 -76q0 -37 -22.5 -58.5t-62.5 -21.5zM1159 1126v-1079q0 -250 -138 -396.5t-374 -146.5q-291 0 -469 197l66 72q158 -172 401 -172q190 0 300 119.5t110 326.5v195 q-57 -125 -172 -196t-258 -71h-13q-227 0 -368.5 164t-141.5 418v12q0 254 141.5 418t368.5 164h13q145 0 258.5 -69.5t171.5 -194.5v239h104zM625 72h12q184 0 301 136t117 351v8q0 217 -117 352.5t-301 135.5h-12q-184 0 -300 -135.5t-116 -352.5v-8q0 -215 117 -351 t299 -136z" glyph-name="gcommaaccent" horiz-adv-x="1296" unicode="ģ"/><glyph d="M1460 872h-55v-2h-29v-870h-104v870h-910v-870h-106v870h-47v2h-39v97h86v465h106v-465h910v465h104v-465h84v-97z" glyph-name="Hbar" horiz-adv-x="1632" unicode="Ħ"/><glyph d="M727 1151h8q193 0 295.5 -113.5t102.5 -322.5v-715h-105v715q0 164 -75.5 252t-225.5 88h-8q-170 0 -278.5 -136.5t-108.5 -351.5v-567h-105v1206h-176v97h176v172h105v-172h231v-97h-231v-317q53 121 156.5 191.5t238.5 70.5z" glyph-name="hbar" horiz-adv-x="1306" unicode="ħ"/><glyph d="M524 1690h-512v96h512v-96zM322 1434v-1434h-107v1434h107z" glyph-name="Imacron" horiz-adv-x="536" unicode="Ī"/><glyph d="M504 1382h-512v97h512v-97zM301 0h-106v1126h106v-1126z" glyph-name="imacron" horiz-adv-x="485" unicode="ī"/><glyph d="M322 1434v-1434q-244 -164 -244 -293q0 -82 67.5 -107.5t176.5 17.5v-86q-70 -27 -154 -27t-140.5 50.5t-56.5 140.5q0 170 244 323v1416h107z" glyph-name="Iogonek" horiz-adv-x="536" unicode="Į"/><glyph d="M249 1544q38 0 60.5 -20.5t22.5 -58.5t-22.5 -59.5t-60.5 -21.5t-61.5 21.5t-23.5 59.5t23.5 58.5t61.5 20.5zM195 1126h106v-1126q-244 -164 -244 -293q0 -82 68 -107.5t176 17.5v-86q-69 -27 -153 -27t-140.5 50.5t-56.5 140.5q0 170 244 323v1108z" glyph-name="iogonek" horiz-adv-x="485" unicode="į"/><glyph d="M269 1692q-38 0 -61.5 21.5t-23.5 59.5t23.5 58t61.5 20t60.5 -20.5t22.5 -58.5t-22.5 -59t-60.5 -21zM322 1434v-1434h-107v1434h107z" glyph-name="Idotaccent" horiz-adv-x="536" unicode="İ"/><glyph d="M301 0h-106v1126h106v-1126z" glyph-name="dotlessi" horiz-adv-x="485" unicode="ı"/><glyph d="M322 1434v-1434h-107v1434h107zM731 72q129 0 181.5 77.5t52.5 245.5v1039h104v-1037q0 -213 -75.5 -317.5t-258.5 -104.5q-74 1 -127 9v98q78 -10 123 -10z" glyph-name="IJ" horiz-adv-x="1284" unicode="Ĳ"/><glyph d="M195 1420.5q0 54.5 81 54.5q37 0 58.5 -19.5t21.5 -54.5t-21.5 -55.5t-59.5 -20.5t-59 20.5t-21 75zM808 1475q38 0 59.5 -19.5t21.5 -54.5t-21.5 -55.5t-59.5 -20.5t-59.5 20.5t-21.5 55.5t21.5 54.5t59.5 19.5zM330 0h-107v1126h107v-1126zM862 1126v-1325 q0 -154 -59.5 -225.5t-188.5 -71.5q-59 0 -98 11v94q43 -8 86 -8q84 0 119 42t35 144v1339h106z" glyph-name="ij" horiz-adv-x="1073" unicode="ĳ"/><glyph d="M322 0h-107v1434h107v-912l827 912h133l-532 -588l600 -846h-127l-543 768l-358 -393v-375zM743.5 -168q38.5 0 63 -27.5t24.5 -84t-47 -162t-116 -197.5l-68 49q102 158 127 266q-70 6 -70 76q0 37 24 58.5t62.5 21.5z" glyph-name="Kcommaaccent" horiz-adv-x="1421" unicode="Ķ"/><glyph d="M301 0h-106v1475h106v-1029l639 680h137l-454 -479l499 -647h-129l-442 571l-250 -262v-309zM620.5 -168q38.5 0 63.5 -27.5t25 -84t-47.5 -162t-116.5 -197.5l-68 49q102 158 127 266q-70 6 -69 76q0 37 23.5 58.5t62 21.5z" glyph-name="kcommaaccent" horiz-adv-x="1173" unicode="ķ"/><glyph d="M676 1571h-121l289 393h131zM1067 96v-96h-852v1434h107v-1338h745z" glyph-name="Lacute" horiz-adv-x="1138" unicode="Ĺ"/><glyph d="M313 1612h-120l288 393h131zM301 0h-106v1475h106v-1475z" glyph-name="lacute" horiz-adv-x="475" unicode="ĺ"/><glyph d="M1067 96v-96h-852v1434h107v-1338h745zM612 -168q40 0 64 -28t24 -84t-47 -161.5t-116 -197.5l-68 49q102 158 127 266q-70 6 -70 76q0 37 23.5 58.5t62.5 21.5z" glyph-name="Lcommaaccent" horiz-adv-x="1138" unicode="Ļ"/><glyph d="M301 0h-106v1475h106v-1475zM250 -168q40 0 64 -28t24 -84t-47 -161.5t-117 -197.5l-68 49q102 158 127 266q-70 6 -69 76q0 37 23.5 58.5t62.5 21.5z" glyph-name="lcommaaccent" horiz-adv-x="475" unicode="ļ"/><glyph d="M821 1413q0 37 22.5 58.5t62.5 21.5t64.5 -28.5t24.5 -84.5t-47 -161t-119 -197l-65 49q102 166 127 266q-70 6 -70 76zM250 96h745v-96h-852v1434h107v-1338z" glyph-name="Lcaron" horiz-adv-x="1077" unicode="Ľ"/><glyph d="M586 1499q39 0 63.5 -27.5t24.5 -83.5t-47 -162t-117 -198l-68 51q100 156 127 264q-70 10 -69 78q0 35 23.5 56.5t62.5 21.5zM195 1454h106v-1454h-106v1454z" glyph-name="lcaron" horiz-adv-x="724" unicode="ľ"/><glyph d="M1067 96v-96h-852v1434h107v-1338h745zM960 571q-38 0 -62 21.5t-24 58.5t24 58.5t62 21.5t60 -21.5t22 -58.5t-22 -58.5t-60 -21.5z" glyph-name="Ldot" horiz-adv-x="1138" unicode="Ŀ"/><glyph d="M301 0h-106v1475h106v-1475zM526 571q-37 0 -60.5 21.5t-23.5 58.5t23.5 58.5t60.5 21.5t60.5 -21.5t23.5 -58.5t-23.5 -58.5t-60.5 -21.5z" glyph-name="ldot" horiz-adv-x="661" unicode="ŀ"/><glyph d="M1145 96v-96h-850v721l-223 -66v103l223 65v611h104v-580l353 102v-102l-353 -102v-656h746z" glyph-name="Lslash" horiz-adv-x="1216" unicode="Ł"/><glyph d="M373 0h-107v778l-215 -59v92l215 59v605h107v-574l215 60v-95l-215 -59v-807z" glyph-name="lslash" horiz-adv-x="638" unicode="ł"/><glyph d="M821 1571h-121l289 393h131zM1319 1432v-1434h-107l-911 1272v-1270h-106v1434h108l911 -1272v1270h105z" glyph-name="Nacute" horiz-adv-x="1513" unicode="Ń"/><glyph d="M698 1264h-120l288 393h131zM684 1151h8q193 0 296.5 -114.5t103.5 -321.5v-715h-107v715q0 164 -75.5 252t-225.5 88h-8q-170 0 -277.5 -136.5t-107.5 -351.5v-567h-107v1126h107v-233q53 121 156.5 189.5t236.5 68.5z" glyph-name="nacute" horiz-adv-x="1265" unicode="ń"/><glyph d="M1319 1432v-1434h-107l-911 1272v-1270h-106v1434h108l911 -1272v1270h105zM756 -168q40 0 64 -28t24 -84t-47 -161.5t-117 -197.5l-68 49q102 158 127 266q-70 6 -69 76q0 37 23.5 58.5t62.5 21.5z" glyph-name="Ncommaaccent" horiz-adv-x="1513" unicode="Ņ"/><glyph d="M684 1151h8q193 0 296.5 -114.5t103.5 -321.5v-715h-107v715q0 164 -75.5 252t-225.5 88h-8q-170 0 -277.5 -136.5t-107.5 -351.5v-567h-107v1126h107v-233q53 121 156.5 189.5t236.5 68.5zM635 -168q39 0 63 -28t24.5 -84t-46.5 -161.5t-117 -197.5l-67 49 q102 158 126 266q-70 6 -69 76q0 37 23.5 58.5t62.5 21.5z" glyph-name="ncommaaccent" horiz-adv-x="1265" unicode="ņ"/><glyph d="M684 1571l-289 393h121l240 -313l239 313h119l-289 -393h-141zM1319 1432v-1434h-107l-911 1272v-1270h-106v1434h108l911 -1272v1270h105z" glyph-name="Ncaron" horiz-adv-x="1513" unicode="Ň"/><glyph d="M563 1264l-289 393h121l240 -314l239 314h119l-288 -393h-142zM684 1151h8q193 0 296.5 -114.5t103.5 -321.5v-715h-107v715q0 164 -75.5 252t-225.5 88h-8q-170 0 -277.5 -136.5t-107.5 -351.5v-567h-107v1126h107v-233q53 121 156.5 189.5t236.5 68.5z" glyph-name="ncaron" horiz-adv-x="1265" unicode="ň"/><glyph d="M1315 1432v-1506q0 -215 -76 -318.5t-258 -103.5q-78 0 -127 9v98q47 -10 123 -10q129 0 180 77.5t51 245.5v74h-4l-903 1268v-1266h-106v1434h110l903 -1268v1266h107z" glyph-name="Eng" horiz-adv-x="1509" unicode="Ŋ"/><glyph d="M684 1151h8q193 0 296.5 -114.5t103.5 -321.5v-914q0 -154 -59.5 -225.5t-188.5 -71.5q-59 0 -99 11v94q43 -8 86 -8q84 0 119 42t35 144v928q0 164 -75.5 252t-225.5 88h-8q-170 0 -277.5 -136.5t-107.5 -351.5v-567h-107v1126h107v-241q53 123 155.5 194.5t237.5 71.5z " glyph-name="eng" horiz-adv-x="1265" unicode="ŋ"/><glyph d="M1073 1690h-512v96h512v-96zM805 1458h24q291 0 471.5 -205.5t180.5 -527.5v-16q0 -322 -180.5 -528t-471.5 -206h-24q-291 0 -471 206t-180 528v16q0 322 180 527.5t471 205.5zM827 1362h-18q-244 0 -396.5 -178t-152.5 -457v-20q0 -279 152.5 -457t396.5 -178h18 q244 0 396.5 178t152.5 457v20q0 279 -152.5 457t-396.5 178z" glyph-name="Omacron" horiz-adv-x="1634" unicode="Ō"/><glyph d="M901 1382h-512v97h512v-97zM639 1151h12q236 0 380.5 -164t144.5 -418v-12q0 -254 -144.5 -418t-380.5 -164h-12q-238 0 -382 164t-144 418v12q0 254 144 418t382 164zM651 1055h-12q-188 0 -304 -135.5t-116 -352.5v-8q0 -217 117 -352t303 -135h12q186 0 303 135 t117 352v8q0 217 -116 352.5t-304 135.5z" glyph-name="omacron" horiz-adv-x="1288" unicode="ō"/><glyph d="M725 1571h-121l289 393h131zM1040 1571h-120l288 393h131zM805 1458h24q291 0 471.5 -205.5t180.5 -527.5v-16q0 -322 -180.5 -528t-471.5 -206h-24q-291 0 -471 206t-180 528v16q0 322 180 527.5t471 205.5zM827 1362h-18q-244 0 -396.5 -178t-152.5 -457v-20 q0 -279 152.5 -457t396.5 -178h18q244 0 396.5 178t152.5 457v20q0 279 -152.5 457t-396.5 178z" glyph-name="Ohungarumlaut" horiz-adv-x="1634" unicode="Ő"/><glyph d="M551 1264h-121l289 393h131zM866 1264h-121l289 393h131zM639 1151h12q236 0 380.5 -164t144.5 -418v-12q0 -254 -144.5 -418t-380.5 -164h-12q-238 0 -382 164t-144 418v12q0 254 144 418t382 164zM651 1055h-12q-188 0 -304 -135.5t-116 -352.5v-8q0 -217 117 -352 t303 -135h12q186 0 303 135t117 352v8q0 217 -116 352.5t-304 135.5z" glyph-name="ohungarumlaut" horiz-adv-x="1288" unicode="ő"/><glyph d="M1384 1337v-542h746v-97h-746v-602h805v-96h-909v137q-193 -162 -457 -162q-311 0 -490 203t-179 531v16q0 328 175 530.5t474 202.5h14q264 0 463 -164v140h909v-97h-805zM809 72h10q279 0 461 204v879q-184 207 -467 207h-10q-250 0 -396.5 -175t-146.5 -460v-20 q0 -279 152.5 -457t396.5 -178z" glyph-name="OE" horiz-adv-x="2295" unicode="Œ"/><glyph d="M2107 518h-929q10 -203 128.5 -324.5t301.5 -121.5h12q229 0 371 176l65 -70q-160 -203 -440 -203q-174 0 -302 82t-192 228q-61 -143 -184 -226.5t-287 -83.5h-12q-238 0 -382 164t-144 418v12q0 254 144 418t382 164h12q164 0 287 -83t184 -226q61 143 183 226t286 83 h13q233 0 368 -163t135 -419v-51zM639 72h12q186 0 303 135t117 352v8q0 217 -115.5 352.5t-304.5 135.5h-12q-188 0 -304 -135.5t-116 -352.5v-8q0 -217 117 -352t303 -135zM1604 1055h-13q-174 0 -287.5 -121t-125.5 -320h823q-12 201 -117.5 321t-279.5 120z" glyph-name="oe" horiz-adv-x="2209" unicode="œ"/><glyph d="M770 1571h-121l289 393h131zM322 606v-606h-107v1434h567q465 0 465 -420q0 -342 -325 -398l329 -616h-121l-319 606h-489zM322 702h469q195 0 272.5 81t77.5 233t-79 236.5t-274 84.5h-466v-635z" glyph-name="Racute" horiz-adv-x="1386" unicode="Ŕ"/><glyph d="M487 1264h-120l288 393h131zM682 1151q20 0 37 -2v-94h-31q-180 0 -288.5 -139.5t-108.5 -362.5v-553h-107v1126h107v-241q53 123 154.5 194.5t236.5 71.5z" glyph-name="racute" horiz-adv-x="770" unicode="ŕ"/><glyph d="M322 606v-606h-107v1434h567q465 0 465 -420q0 -342 -325 -398l329 -616h-121l-319 606h-489zM322 702h469q195 0 272.5 81t77.5 233t-79 236.5t-274 84.5h-466v-635zM704.5 -168q38.5 0 63.5 -27.5t25 -84t-47.5 -162t-116.5 -197.5l-68 49q102 158 127 266 q-70 6 -70 76q0 37 24 58.5t62.5 21.5z" glyph-name="Rcommaaccent" horiz-adv-x="1386" unicode="Ŗ"/><glyph d="M682 1151q20 0 37 -2v-94h-31q-180 0 -288.5 -139.5t-108.5 -362.5v-553h-107v1126h107v-241q53 123 154.5 194.5t236.5 71.5zM422 -168q40 0 64 -28t24 -84t-47 -161.5t-117 -197.5l-67 49q102 158 127 266q-70 6 -70 76q0 37 23.5 58.5t62.5 21.5z" glyph-name="rcommaaccent" horiz-adv-x="770" unicode="ŗ"/><glyph d="M633 1571l-289 393h121l240 -313l239 313h119l-289 -393h-141zM322 606v-606h-107v1434h567q465 0 465 -420q0 -342 -325 -398l329 -616h-121l-319 606h-489zM322 702h469q195 0 272.5 81t77.5 233t-79 236.5t-274 84.5h-466v-635z" glyph-name="Rcaron" horiz-adv-x="1386" unicode="Ř"/><glyph d="M350 1264l-289 393h121l240 -314l240 314h118l-288 -393h-142zM682 1151q20 0 37 -2v-94h-31q-180 0 -288.5 -139.5t-108.5 -362.5v-553h-107v1126h107v-241q53 123 154.5 194.5t236.5 71.5z" glyph-name="rcaron" horiz-adv-x="770" unicode="ř"/><glyph d="M731 1571h-121l289 393h131zM668 1458q158 0 294 -53t228 -150l-68 -75q-172 182 -456 182q-180 0 -294 -85t-114 -210t89 -180.5t370 -112.5t394.5 -144t113.5 -257t-146.5 -284t-350.5 -114t-363.5 72t-255.5 197l67 73q92 -117 230.5 -181t309.5 -64t286.5 85 t115.5 215t-91 191.5t-369 118.5t-391 138t-113 247t144.5 278.5t369.5 112.5z" glyph-name="Sacute" horiz-adv-x="1331" unicode="Ś"/><glyph d="M625 1264h-121l289 393h131zM557 1151q268 0 420 -162l-66 -71q-135 137 -354 137q-133 0 -222 -63.5t-89 -152.5t68 -131t290 -88t313 -118t91 -209t-118 -227.5t-284 -90.5t-295 57.5t-202 155.5l65 74q150 -190 412 -190q139 0 228 62.5t89 158.5t-69.5 142t-289.5 90 t-312.5 113t-92.5 202t117 222t301 89z" glyph-name="sacute" horiz-adv-x="1116" unicode="ś"/><glyph d="M797 -283q0 134 -283 50l123 210q-164 14 -302 84t-226 183l67 73q92 -117 230.5 -181t309.5 -64t286.5 85t115.5 215t-91 191.5t-369.5 118.5t-391 138t-112.5 247t144 278.5t370 112.5q158 0 294 -53t228 -150l-68 -75q-172 182 -456 182q-180 0 -294 -85t-114 -210 t89 -180.5t370 -112.5t394.5 -144t113.5 -254t-135.5 -278.5t-348.5 -122.5l-61 -96q100 16 161.5 -23.5t61.5 -127.5q0 -115 -112.5 -177.5t-276.5 -39.5v83q127 -16 205 19t78 104z" glyph-name="Scedilla" horiz-adv-x="1331" unicode="Ş"/><glyph d="M680 -283q0 134 -283 50l123 213q-129 12 -238.5 67t-172.5 141l65 74q150 -190 412 -190q139 0 228 62.5t89 158.5t-69.5 142t-290 90t-312.5 113t-92 202t117 222t301 89q268 0 420 -162l-66 -71q-135 137 -354 137q-133 0 -222 -63.5t-89 -152.5t67.5 -131t290 -88 t313.5 -118t91 -205t-106.5 -222t-276.5 -100l-62 -96q100 16 161.5 -23.5t61.5 -127.5q0 -115 -112.5 -177.5t-276.5 -39.5v83q127 -16 205 19t78 104z" glyph-name="scedilla" horiz-adv-x="1116" unicode="ş"/><glyph d="M596 1571l-289 393h121l240 -313l239 313h119l-289 -393h-141zM1225 373q0 -170 -146.5 -284t-350 -114t-363.5 72t-256 197l67 73q92 -117 230.5 -181t309.5 -64t286.5 85t115.5 215t-91 191.5t-369.5 118.5t-391 138t-112.5 247t144 278.5t370 112.5q158 0 294 -53 t228 -150l-68 -75q-172 182 -456 182q-180 0 -294 -85t-114 -210t89.5 -180.5t370 -112.5t394 -144t113.5 -257z" glyph-name="Scaron" horiz-adv-x="1331" unicode="Š"/><glyph d="M487 1264l-288 393h120l240 -314l240 314h119l-289 -393h-142zM1008 293q0 -137 -118 -227.5t-283.5 -90.5t-295 57.5t-202.5 155.5l65 74q150 -190 412 -190q139 0 228 62.5t89 158.5t-69.5 142t-290 90t-312.5 113t-92 202t117 222t301 89q268 0 420 -162l-66 -71 q-135 137 -354 137q-133 0 -222 -63.5t-89 -152.5t67.5 -131t290 -88t313.5 -118t91 -209z" glyph-name="scaron" horiz-adv-x="1116" unicode="š"/><glyph d="M723 -283q0 134 -283 50l135 233v1337h-503v97h1112v-97h-504v-1337h2l-76 -121q100 16 161.5 -23.5t61.5 -127.5q0 -115 -112.5 -177.5t-276.5 -39.5v83q127 -16 205 19t78 104z" glyph-name="Tcommaaccent" horiz-adv-x="1255" unicode="Ţ"/><glyph d="M584 -283q0 134 -283 50l127 217q-92 20 -133 91.5t-41 200.5v758h-162v92h162v187l104 18v-205h324v-92h-324v-772q0 -106 38 -148t141 -42q51 0 145 8v-92q-90 -13 -156 -13l-59 -96q100 16 161.5 -23.5t61.5 -127.5q0 -115 -112.5 -177.5t-276.5 -39.5v83 q127 -16 205 19t78 104z" glyph-name="tcommaaccent" horiz-adv-x="794" unicode="ţ"/><glyph d="M557 1571l-289 393h121l240 -313l239 313h119l-289 -393h-141zM1184 1337h-504v-1337h-105v1337h-503v97h1112v-97z" glyph-name="Tcaron" horiz-adv-x="1255" unicode="Ť"/><glyph d="M911 1499q39 0 63.5 -27.5t24.5 -83.5t-47 -162t-116 -198l-68 51q100 156 127 264q-70 10 -70 78q0 35 23.5 56.5t62.5 21.5zM358 1126h324v-92h-324v-772q0 -106 38 -148t141 -42q51 0 145 8v-92q-94 -12 -164 -13q-141 0 -202.5 72t-61.5 229v758h-162v92h162v187 l104 18v-205z" glyph-name="tcaron" horiz-adv-x="1050" unicode="ť"/><glyph d="M680 1337v-563h289v-96h-289v-678h-105v678h-288v96h288v563h-503v97h1112v-97h-504z" glyph-name="Tbar" horiz-adv-x="1255" unicode="Ŧ"/><glyph d="M682 965v-111h-324v-592q0 -106 38 -148t141 -42q51 0 145 8v-92q-94 -12 -164 -13q-141 0 -202.5 72t-61.5 229v578h-162v111h162v348l104 18v-366h324z" glyph-name="tbar" horiz-adv-x="794" unicode="ŧ"/><glyph d="M1018 1690h-512v96h512v-96zM1307 1434v-869q0 -279 -140.5 -434.5t-392.5 -155.5h-24q-252 0 -393.5 156t-141.5 434v869h107v-871q0 -238 112.5 -364.5t317.5 -126.5h18q205 0 318.5 127t113.5 364v871h105z" glyph-name="Umacron" horiz-adv-x="1501" unicode="Ū"/><glyph d="M866 1382h-512v97h512v-97zM1061 1126v-1126h-107v236q-53 -121 -154.5 -191t-234.5 -70h-2q-186 0 -287.5 115t-101.5 316v720h107v-720q0 -158 74.5 -246t215.5 -88h2q168 0 274.5 137t106.5 350v567h107z" glyph-name="umacron" horiz-adv-x="1234" unicode="ū"/><glyph d="M761 1989q103 0 169.5 -61.5t66.5 -159.5t-66.5 -160t-169.5 -62t-170 62.5t-67 159.5t67 159t170 62zM761.5 1630q63.5 0 101.5 38t38 99.5t-38 100.5t-101.5 39t-102 -39t-38.5 -100.5t38.5 -99.5t102 -38zM1307 1434v-869q0 -279 -140.5 -434.5t-392.5 -155.5h-24 q-252 0 -393.5 156t-141.5 434v869h107v-871q0 -238 112.5 -364.5t317.5 -126.5h18q205 0 318.5 127t113.5 364v871h105z" glyph-name="Uring" horiz-adv-x="1501" unicode="Ů"/><glyph d="M611 1239q-103 0 -169.5 62.5t-66.5 159.5t66.5 158.5t169.5 61.5t170 -60.5t67 -158.5t-67 -160.5t-170 -62.5zM612.5 1599q-63.5 0 -102.5 -38.5t-39 -100t39 -99.5t102.5 -38t101.5 38t38 99.5t-38 100t-101.5 38.5zM1061 1126v-1126h-107v236q-53 -121 -154.5 -191 t-234.5 -70h-2q-186 0 -287.5 115t-101.5 316v720h107v-720q0 -158 74.5 -246t215.5 -88h2q168 0 274.5 137t106.5 350v567h107z" glyph-name="uring" horiz-adv-x="1234" unicode="ů"/><glyph d="M668 1571h-121l289 393h131zM983 1571h-121l289 393h131zM1307 1434v-869q0 -279 -140.5 -434.5t-392.5 -155.5h-24q-252 0 -393.5 156t-141.5 434v869h107v-871q0 -238 112.5 -364.5t317.5 -126.5h18q205 0 318.5 127t113.5 364v871h105z" glyph-name="Uhungarumlaut" horiz-adv-x="1501" unicode="Ű"/><glyph d="M518 1264h-121l289 393h131zM713 1264l288 393h132l-299 -393h-121zM954 1126h107v-1126h-107v236q-53 -121 -154.5 -191t-234.5 -70h-2q-186 0 -287.5 115t-101.5 316v720h107v-720q0 -158 74.5 -246t215.5 -88h2q168 0 274.5 137t106.5 350v567z" glyph-name="uhungarumlaut" horiz-adv-x="1234" unicode="ű"/><glyph d="M1307 1434v-869q0 -225 -92.5 -371.5t-264.5 -195.5q-242 -162 -241 -291q0 -82 67.5 -107.5t175.5 17.5v-86q-70 -27 -154 -27t-140 50.5t-56 140.5q0 145 180 280h-32q-252 0 -393.5 156t-141.5 434v869h107v-871q0 -238 112.5 -364.5t317.5 -126.5h18q205 0 318.5 127 t113.5 364v871h105z" glyph-name="Uogonek" horiz-adv-x="1501" unicode="Ų"/><glyph d="M1061 1126v-1126q-244 -164 -244 -293q0 -82 68.5 -107.5t175.5 17.5v-86q-69 -27 -153 -27t-140.5 50.5t-56.5 140.5q0 170 243 323v218q-53 -121 -154.5 -191t-234.5 -70h-2q-186 0 -287.5 115t-101.5 316v720h107v-720q0 -158 74.5 -246t215.5 -88h2q168 0 274.5 137 t106.5 350v567h107z" glyph-name="uogonek" horiz-adv-x="1234" unicode="ų"/><glyph d="M754 1571h-121l289 393h141l289 -393h-119l-240 313zM1913 1434l-418 -1434h-121l-381 1296l-381 -1296h-120l-420 1434h108l373 -1301l379 1301h121l381 -1305l370 1305h109z" glyph-name="Wcircumflex" horiz-adv-x="1984" unicode="Ŵ"/><glyph d="M594 1264h-121l289 393h141l289 -393h-119l-239 313zM1614 1126l-350 -1126h-127l-303 993l-306 -993h-127l-350 1126h111l303 -997l303 997h129l303 -997l303 997h111z" glyph-name="wcircumflex" horiz-adv-x="1665" unicode="ŵ"/><glyph d="M420 1571h-121l289 393h141l289 -393h-119l-240 313zM709 0h-105v516l-532 918h121l462 -807l467 807h121l-534 -918v-516z" glyph-name="Ycircumflex" horiz-adv-x="1314" unicode="Ŷ"/><glyph d="M332 1264h-121l289 393h141l289 -393h-119l-240 313zM259 -496q-95 0 -177 82l65 72q63 -57 117 -57t99 59t108 223l45 117h-22l-443 1126h113l395 -1015l393 1015h113l-506 -1286q-74 -188 -139.5 -262t-160.5 -74z" glyph-name="ycircumflex" horiz-adv-x="1116" unicode="ŷ"/><glyph d="M468 1692q-38 0 -61.5 21.5t-23.5 59.5t23.5 58t61.5 20t60.5 -20.5t22.5 -58.5t-22.5 -59t-60.5 -21zM847 1692q-38 0 -61.5 21.5t-23.5 59.5t23.5 58t61.5 20t60.5 -20.5t22.5 -58.5t-22.5 -59t-60.5 -21zM709 0h-105v516l-532 918h121l462 -807l467 807h121l-534 -918 v-516z" glyph-name="Ydieresis" horiz-adv-x="1314" unicode="Ÿ"/><glyph d="M698 1571h-120l288 393h131zM1155 96v-96h-1046v96l909 1241h-887v97h1014v-97l-912 -1241h922z" glyph-name="Zacute" horiz-adv-x="1263" unicode="Ź"/><glyph d="M621 1264h-121l288 393h132zM1008 96v-96h-906v96l764 934h-725v96h856v-96l-766 -934h777z" glyph-name="zacute" horiz-adv-x="1110" unicode="ź"/><glyph d="M632 1692q-38 0 -61.5 21.5t-23.5 59.5t23.5 58t61.5 20t60.5 -20.5t22.5 -58.5t-22.5 -59t-60.5 -21zM1155 96v-96h-1046v96l909 1241h-887v97h1014v-97l-912 -1241h922z" glyph-name="Zdotaccent" horiz-adv-x="1263" unicode="Ż"/><glyph d="M554 1384q-38 0 -61.5 21.5t-23.5 59.5t23.5 58.5t61.5 20.5t60.5 -20.5t22.5 -58.5t-22.5 -59.5t-60.5 -21.5zM1008 96v-96h-906v96l764 934h-725v96h856v-96l-766 -934h777z" glyph-name="zdotaccent" horiz-adv-x="1110" unicode="ż"/><glyph d="M561 1571l-289 393h121l240 -313l239 313h119l-289 -393h-141zM1155 96v-96h-1046v96l909 1241h-887v97h1014v-97l-912 -1241h922z" glyph-name="Zcaron" horiz-adv-x="1263" unicode="Ž"/><glyph d="M483 1264l-288 393h120l240 -314l240 314h118l-288 -393h-142zM1008 96v-96h-906v96l764 934h-725v96h856v-96l-766 -934h777z" glyph-name="zcaron" horiz-adv-x="1110" unicode="ž"/><glyph d="M639 1571l-289 393h121l240 -313l239 313h119l-289 -393h-141zM1044 489h-671l-199 -489h-113l588 1434h119l588 -1434h-113zM1006 588l-297 727l-295 -727h592z" glyph-name="uni01CD" horiz-adv-x="1417" unicode="Ǎ"/><glyph d="M528 1264l-288 393h120l240 -314l240 314h118l-288 -393h-142zM608 1151h8q401 0 402 -416v-735h-107v256q-55 -129 -170.5 -205t-259.5 -76h-4q-166 0 -265 90.5t-99 241.5q0 197 194.5 290t603.5 95v56q0 307 -301 307h-10q-221 0 -367 -162l-65 70q166 188 440 188z M483 72q184 0 306 139t122 348v41q-358 -2 -525 -72.5t-167 -222.5q0 -109 70.5 -171t193.5 -62z" glyph-name="uni01CE" horiz-adv-x="1191" unicode="ǎ"/><glyph d="M629 1964l-289 -393h-141l-289 393h121l239 -313l240 313h119zM215 1434h107v-1434h-107v1434z" glyph-name="uni01CF" horiz-adv-x="536" unicode="Ǐ"/><glyph d="M606 1657l-289 -393h-141l-289 393h121l240 -314l239 314h119zM195 1126h106v-1126h-106v1126z" glyph-name="uni01D0" horiz-adv-x="485" unicode="ǐ"/><glyph d="M748 1571l-289 393h121l239 -313l240 313h119l-289 -393h-141zM805 1458h24q291 0 471.5 -205.5t180.5 -527.5v-16q0 -322 -180.5 -528t-471.5 -206h-24q-291 0 -471 206t-180 528v16q0 322 180 527.5t471 205.5zM1376 707v20q0 279 -152.5 457t-396.5 178h-18 q-244 0 -396.5 -178t-152.5 -457v-20q0 -279 152.5 -457t396.5 -178h18q244 0 396.5 178t152.5 457z" glyph-name="uni01D1" horiz-adv-x="1634" unicode="Ǒ"/><glyph d="M573 1264l-288 393h121l239 -314l240 314h119l-289 -393h-142zM639 1151h12q236 0 380.5 -164t144.5 -418v-12q0 -254 -144.5 -418t-380.5 -164h-12q-238 0 -382 164t-144 418v12q0 254 144 418t382 164zM1071 559v8q0 217 -115.5 352.5t-304.5 135.5h-12 q-188 0 -304 -135.5t-116 -352.5v-8q0 -217 117 -352t303 -135h12q186 0 303 135t117 352z" glyph-name="uni01D2" horiz-adv-x="1288" unicode="ǒ"/><glyph d="M690 1571l-289 393h121l240 -313l239 313h119l-289 -393h-141zM1307 1434v-869q0 -279 -140.5 -434.5t-392.5 -155.5h-24q-252 0 -393.5 156t-141.5 434v869h107v-871q0 -238 112.5 -364.5t317.5 -126.5h18q205 0 318.5 127t113.5 364v871h105z" glyph-name="uni01D3" horiz-adv-x="1501" unicode="Ǔ"/><glyph d="M541 1264l-289 393h121l239 -314l240 314h119l-289 -393h-141zM1061 1126v-1126h-107v236q-53 -121 -154.5 -191t-234.5 -70h-2q-186 0 -287.5 115t-101.5 316v720h107v-720q0 -158 74.5 -246t215.5 -88h2q168 0 274.5 137t106.5 350v567h107z" glyph-name="uni01D4" horiz-adv-x="1234" unicode="ǔ"/><glyph d="M1018 1972h-512v96h512v-96zM571.5 1692q-36.5 0 -60.5 21.5t-24 59.5t24 58t60.5 20t60 -20.5t23.5 -58.5t-23.5 -59t-60 -21zM950 1692q-37 0 -60.5 21.5t-23.5 59.5t23.5 58t60.5 20t60.5 -20.5t23.5 -58.5t-23.5 -59t-60.5 -21zM1307 1434v-869q0 -279 -140.5 -434.5 t-392.5 -155.5h-24q-252 0 -393.5 156t-141.5 434v869h107v-871q0 -238 112.5 -364.5t317.5 -126.5h18q205 0 318.5 127t113.5 364v871h105z" glyph-name="uni01D5" horiz-adv-x="1501" unicode="Ǖ"/><glyph d="M866 1665h-512v96h512v-96zM421 1384q-38 0 -61.5 21.5t-23.5 59.5t23.5 58.5t61.5 20.5t60.5 -20.5t22.5 -58.5t-22.5 -59.5t-60.5 -21.5zM800 1544q38 0 60.5 -20.5t22.5 -58.5t-22.5 -59.5t-60.5 -21.5t-61.5 21.5t-23.5 59.5t23.5 58.5t61.5 20.5zM1061 1126v-1126 h-107v236q-53 -121 -154.5 -191t-234.5 -70h-2q-186 0 -287.5 115t-101.5 316v720h107v-720q0 -158 74.5 -246t215.5 -88h2q168 0 274.5 137t106.5 350v567h107z" glyph-name="uni01D6" horiz-adv-x="1234" unicode="ǖ"/><glyph d="M825 1972h-120l288 391h131zM571.5 1692q-36.5 0 -60.5 21.5t-24 59.5t24 58t60.5 20t60 -20.5t23.5 -58.5t-23.5 -59t-60 -21zM950 1692q-37 0 -60.5 21.5t-23.5 59.5t23.5 58t60.5 20t60.5 -20.5t23.5 -58.5t-23.5 -59t-60.5 -21zM1307 1434v-869q0 -279 -140.5 -434.5 t-392.5 -155.5h-24q-252 0 -393.5 156t-141.5 434v869h107v-871q0 -238 112.5 -364.5t317.5 -126.5h18q205 0 318.5 127t113.5 364v871h105z" glyph-name="uni01D7" horiz-adv-x="1501" unicode="Ǘ"/><glyph d="M676 1665h-121l289 391h131zM421 1384q-38 0 -61.5 21.5t-23.5 59.5t23.5 58.5t61.5 20.5t60.5 -20.5t22.5 -58.5t-22.5 -59.5t-60.5 -21.5zM715 1465q0 38 23.5 58.5t61.5 20.5t60.5 -20.5t22.5 -58.5t-22.5 -59.5t-60.5 -21.5t-61.5 21.5t-23.5 59.5zM1061 1126v-1126 h-107v236q-53 -121 -154.5 -191t-234.5 -70h-2q-186 0 -287.5 115t-101.5 316v720h107v-720q0 -158 74.5 -246t215.5 -88h2q168 0 274.5 137t106.5 350v567h107z" glyph-name="uni01D8" horiz-adv-x="1234" unicode="ǘ"/><glyph d="M690 1972l-289 391h121l240 -313l239 313h119l-289 -391h-141zM487 1773q0 38 24 58t60.5 20t60 -20.5t23.5 -58.5t-23.5 -59t-60 -21t-60.5 21.5t-24 59.5zM866 1773q0 38 23.5 58t60.5 20t60.5 -20.5t23.5 -58.5t-23.5 -59t-60.5 -21t-60.5 21.5t-23.5 59.5zM1307 1434 v-869q0 -279 -140.5 -434.5t-392.5 -155.5h-24q-252 0 -393.5 156t-141.5 434v869h107v-871q0 -238 112.5 -364.5t317.5 -126.5h18q205 0 318.5 127t113.5 364v871h105z" glyph-name="uni01D9" horiz-adv-x="1501" unicode="Ǚ"/><glyph d="M541 1665l-289 391h119l239 -313l240 313h121l-289 -391h-141zM336 1465q0 38 23.5 58.5t61.5 20.5t60.5 -20.5t22.5 -58.5t-22.5 -59.5t-60.5 -21.5t-61.5 21.5t-23.5 59.5zM715 1465q0 38 23.5 58.5t61.5 20.5t60.5 -20.5t22.5 -58.5t-22.5 -59.5t-60.5 -21.5 t-61.5 21.5t-23.5 59.5zM1061 1126v-1126h-107v236q-53 -121 -154.5 -191t-234.5 -70h-2q-186 0 -287.5 115t-101.5 316v720h107v-720q0 -158 74.5 -246t215.5 -88h2q168 0 274.5 137t106.5 350v567h107z" glyph-name="uni01DA" horiz-adv-x="1234" unicode="ǚ"/><glyph d="M526 2363l289 -391h-119l-299 391h129zM571.5 1692q-36.5 0 -60.5 21.5t-24 59.5t24 58t60.5 20t60 -20.5t23.5 -58.5t-23.5 -59t-60 -21zM950 1692q-37 0 -60.5 21.5t-23.5 59.5t23.5 58t60.5 20t60.5 -20.5t23.5 -58.5t-23.5 -59t-60.5 -21zM1307 1434v-869 q0 -279 -140.5 -434.5t-392.5 -155.5h-24q-252 0 -393.5 156t-141.5 434v869h107v-871q0 -238 112.5 -364.5t317.5 -126.5h18q205 0 318.5 127t113.5 364v871h105z" glyph-name="uni01DB" horiz-adv-x="1501" unicode="Ǜ"/><glyph d="M545 1665l-299 391h131l289 -391h-121zM336 1465q0 38 23.5 58.5t61.5 20.5t60.5 -20.5t22.5 -58.5t-22.5 -59.5t-60.5 -21.5t-61.5 21.5t-23.5 59.5zM800 1384q-38 0 -61.5 21.5t-23.5 59.5t23.5 58.5t61.5 20.5t60.5 -20.5t22.5 -58.5t-22.5 -59.5t-60.5 -21.5z M1061 1126v-1126h-107v236q-53 -121 -154.5 -191t-234.5 -70h-2q-186 0 -287.5 115t-101.5 316v720h107v-720q0 -158 74.5 -246t215.5 -88h2q168 0 274.5 137t106.5 350v567h107z" glyph-name="uni01DC" horiz-adv-x="1234" unicode="ǜ"/><glyph d="M1225 373q0 -170 -146.5 -284t-350 -114t-363.5 72t-256 197l67 73q92 -117 230.5 -181t309.5 -64t286.5 85t115.5 215t-91 191.5t-369.5 118.5t-391 138t-112.5 247t144 278.5t370 112.5q158 0 294 -53t228 -150l-68 -75q-172 182 -456 182q-180 0 -294 -85t-114 -210 t89.5 -180.5t370 -112.5t394 -144t113.5 -257zM704.5 -168q38.5 0 63.5 -27.5t25 -84t-47.5 -162t-116.5 -197.5l-68 49q102 158 127 266q-70 6 -70 76q0 37 24 58.5t62.5 21.5z" glyph-name="Scommaaccent" horiz-adv-x="1331" unicode="Ș"/><glyph d="M1008 293q0 -137 -118 -227.5t-283.5 -90.5t-295 57.5t-202.5 155.5l65 74q150 -190 412 -190q139 0 228 62.5t89 158.5t-69.5 142t-290 90t-312.5 113t-92 202t117 222t301 89q268 0 420 -162l-66 -71q-135 137 -354 137q-133 0 -222 -63.5t-89 -152.5t67.5 -131 t290 -88t313.5 -118t91 -209zM588 -168q39 0 63.5 -27.5t24.5 -84t-47 -162t-117 -197.5l-68 49q102 158 127 266q-70 6 -69 76q0 37 23.5 58.5t62.5 21.5z" glyph-name="scommaaccent" horiz-adv-x="1116" unicode="ș"/><glyph d="M1184 1434v-97h-504v-1337h-105v1337h-503v97h1112zM631 -168q39 0 63 -28t24.5 -84t-46.5 -161.5t-117 -197.5l-68 49q102 158 127 266q-70 6 -69 76q0 37 23.5 58.5t62.5 21.5z" glyph-name="uni021A" horiz-adv-x="1255" unicode="Ț"/><glyph d="M358 1034v-772q0 -106 38 -148t141 -42q51 0 145 8v-92q-94 -12 -164 -13q-141 0 -202.5 72t-61.5 229v758h-162v92h162v187l104 18v-205h324v-92h-324zM491.5 -168q38.5 0 63.5 -28t25 -84t-47.5 -161.5t-116.5 -197.5l-68 49q102 158 127 266q-70 6 -69 76 q0 37 23.5 58.5t62 21.5z" glyph-name="uni021B" horiz-adv-x="794" unicode="ț"/><glyph d="M692 1571l-239 313l-240 -313h-121l289 393h141l289 -393h-119z" glyph-name="circumflex" horiz-adv-x="903" unicode="ˆ"/><glyph d="M811 1964l-289 -393h-141l-289 393h121l240 -313l239 313h119z" glyph-name="caron" horiz-adv-x="903" unicode="ˇ"/><glyph d="M467 1575q-162 0 -263.5 105.5t-111.5 283.5h98q14 -139 88 -216t190 -77t188.5 77t88.5 216h97q-10 -178 -111.5 -283.5t-263.5 -105.5z" glyph-name="breve" horiz-adv-x="933" unicode="˘"/><glyph d="M177 1692q-38 0 -61.5 21.5t-23.5 59.5t23.5 58t61.5 20t60.5 -20.5t22.5 -58.5t-22.5 -59t-60.5 -21z" glyph-name="dotaccent" horiz-adv-x="352" unicode="˙"/><glyph d="M329 1989q103 0 169.5 -61.5t66.5 -159.5t-66.5 -160t-169.5 -62t-170 62.5t-67 159.5t67 159t170 62zM329.5 1630q63.5 0 101.5 38t38 99.5t-38 100.5t-101.5 39t-102.5 -39t-39 -100.5t39 -99.5t102.5 -38z" glyph-name="ring" horiz-adv-x="657" unicode="˚"/><glyph d="M288 -496q-84 0 -140 50.5t-56 140.5q0 184 295 354l55 -49q-244 -164 -243 -293q0 -82 68.5 -107.5t174.5 17.5v-86q-70 -27 -154 -27z" glyph-name="ogonek" horiz-adv-x="534" unicode="˛"/><glyph d="M268 1933q63 0 109.5 -28.5t102.5 -102.5t83 -97.5t64 -23.5q104 0 73 236h91q27 -162 -16.5 -246t-149.5 -84q-63 0 -109.5 28.5t-102.5 102.5t-83 97.5t-64 23.5q-104 0 -73 -235h-91q-27 162 16.5 245.5t149.5 83.5z" glyph-name="tilde" horiz-adv-x="892" unicode="˜"/><glyph d="M213 1571h-121l289 393h131zM528 1571h-120l288 393h131z" glyph-name="hungarumlaut" horiz-adv-x="919" unicode="˝"/><glyph d="M235.5 -168q38.5 0 63.5 -28t25 -84t-47.5 -161.5t-116.5 -197.5l-68 49q102 158 127 266q-70 6 -69 76q0 37 23.5 58.5t62 21.5z" glyph-name="uni0326" horiz-adv-x="0" unicode="̦"/><glyph d="M928 1571l-299 393h131l289 -393h-121zM1913 1434l-418 -1434h-121l-381 1296l-381 -1296h-120l-420 1434h108l373 -1301l379 1301h121l381 -1305l370 1305h109z" glyph-name="Wgrave" horiz-adv-x="1984" unicode="Ẁ"/><glyph d="M768 1264l-299 393h131l289 -393h-121zM1614 1126l-350 -1126h-127l-303 993l-306 -993h-127l-350 1126h111l303 -997l303 997h129l303 -997l303 997h111z" glyph-name="wgrave" horiz-adv-x="1665" unicode="ẁ"/><glyph d="M1059 1571h-121l289 393h131zM1913 1434l-418 -1434h-121l-381 1296l-381 -1296h-120l-420 1434h108l373 -1301l379 1301h121l381 -1305l370 1305h109z" glyph-name="Wacute" horiz-adv-x="1984" unicode="Ẃ"/><glyph d="M899 1264h-121l289 393h131zM1614 1126l-350 -1126h-127l-303 993l-306 -993h-127l-350 1126h111l303 -997l303 997h129l303 -997l303 997h111z" glyph-name="wacute" horiz-adv-x="1665" unicode="ẃ"/><glyph d="M804 1692q-38 0 -61.5 21.5t-23.5 59.5t23.5 58t61.5 20t60.5 -20.5t22.5 -58.5t-22.5 -59t-60.5 -21zM1183 1692q-38 0 -61.5 21.5t-23.5 59.5t23.5 58t61.5 20t60.5 -20.5t22.5 -58.5t-22.5 -59t-60.5 -21zM1913 1434l-418 -1434h-121l-381 1296l-381 -1296h-120 l-420 1434h108l373 -1301l379 1301h121l381 -1305l370 1305h109z" glyph-name="Wdieresis" horiz-adv-x="1984" unicode="Ẅ"/><glyph d="M644 1384q-38 0 -61.5 21.5t-23.5 59.5t23.5 58.5t61.5 20.5t60.5 -20.5t22.5 -58.5t-22.5 -59.5t-60.5 -21.5zM1023 1384q-38 0 -61.5 21.5t-23.5 59.5t23.5 58.5t61.5 20.5t60.5 -20.5t22.5 -58.5t-22.5 -59.5t-60.5 -21.5zM1614 1126l-350 -1126h-127l-303 993 l-306 -993h-127l-350 1126h111l303 -997l303 997h129l303 -997l303 997h111z" glyph-name="wdieresis" horiz-adv-x="1665" unicode="ẅ"/><glyph d="M592 1571l-299 393h131l289 -393h-121zM709 0h-105v516l-532 918h121l462 -807l467 807h121l-534 -918v-516z" glyph-name="Ygrave" horiz-adv-x="1314" unicode="Ỳ"/><glyph d="M506 1264l-299 393h131l289 -393h-121zM259 -496q-95 0 -177 82l65 72q63 -57 117 -57t99 59t108 223l45 117h-22l-443 1126h113l395 -1015l393 1015h113l-506 -1286q-74 -188 -139.5 -262t-160.5 -74z" glyph-name="ygrave" horiz-adv-x="1116" unicode="ỳ"/><glyph glyph-name="uni2009" horiz-adv-x="292" unicode=" "/><glyph d="M1102 618h-907v97h907v-97z" glyph-name="endash" horiz-adv-x="1296" unicode="–"/><glyph d="M1604 618h-1409v97h1409v-97z" glyph-name="emdash" horiz-adv-x="1798" unicode="—"/><glyph d="M369 1067q0 -37 -22.5 -58.5t-62.5 -21.5t-64.5 28.5t-24.5 84.5t47 161t118 197l66 -49q-102 -166 -127 -266q70 -6 70 -76z" glyph-name="quoteleft" horiz-adv-x="579" unicode="‘"/><glyph d="M297 1458q39 0 63.5 -27t24.5 -83t-47 -162.5t-117 -198.5l-67 51q100 156 127 265q-70 10 -70 77q0 35 23.5 56.5t62.5 21.5z" glyph-name="quoteright" horiz-adv-x="579" unicode="’"/><glyph d="M297 135q39 0 63.5 -27.5t24.5 -83.5t-47 -162t-117 -198l-67 49q102 156 127 267q-70 6 -70 77q0 35 23.5 56.5t62.5 21.5z" glyph-name="quotesinglbase" horiz-adv-x="579" unicode="‚"/><glyph d="M369 1067q0 -37 -22.5 -58.5t-62.5 -21.5t-64.5 28.5t-24.5 84.5t46.5 161t118.5 197l66 -49q-102 -166 -127 -266q70 -6 70 -76zM672 1067q0 -37 -23.5 -58.5t-62.5 -21.5t-63.5 27.5t-24.5 84.5t47 162t117 197l67 -49q-102 -157 -127 -266q70 -6 70 -76z" glyph-name="quotedblleft" horiz-adv-x="882" unicode="“"/><glyph d="M297 1458q39 0 63.5 -27t24.5 -83t-47 -162.5t-117 -198.5l-67 51q100 156 127 265q-70 10 -70 77q0 35 23.5 56.5t62.5 21.5zM599 1458q40 0 64.5 -27t24.5 -83t-47 -162.5t-119 -198.5l-65 51q102 162 127 265q-70 10 -70 77q0 35 22.5 56.5t62.5 21.5z" glyph-name="quotedblright" horiz-adv-x="882" unicode="”"/><glyph d="M297 135q39 0 63.5 -27.5t24.5 -83.5t-47 -162t-117 -198l-67 49q102 156 127 267q-70 6 -70 77q0 35 23.5 56.5t62.5 21.5z" glyph-name="quotedblbase" horiz-adv-x="579" unicode="„"/><glyph d="M797 776h-310v-981h-106v981h-309v96h309v562h106v-562h310v-96z" glyph-name="dagger" horiz-adv-x="868" unicode="†"/><glyph d="M487 868v-481h310v-96h-310v-496h-106v496h-309v96h309v481h-309v97h309v469h106v-469h310v-97h-310z" glyph-name="daggerdbl" horiz-adv-x="868" unicode="‡"/><glyph d="M403.5 911q92.5 0 150.5 -57t58 -148t-58 -149.5t-150 -58.5t-150.5 58t-58.5 150t58 148.5t150.5 56.5z" glyph-name="bullet" horiz-adv-x="806" unicode="•"/><glyph d="M280 -25q-38 0 -61.5 21.5t-23.5 59.5t23.5 58.5t61.5 20.5t60 -20.5t22 -58.5t-22 -59.5t-60 -21.5zM763 -25q-38 0 -61.5 21.5t-23.5 59.5t23.5 58.5t61.5 20.5t60.5 -20.5t22.5 -58.5t-22.5 -59.5t-60.5 -21.5zM1246 -25q-38 0 -61.5 21.5t-23.5 59.5t23.5 58.5 t61.5 20.5t60.5 -20.5t22.5 -58.5t-22.5 -59.5t-60.5 -21.5z" glyph-name="ellipsis" horiz-adv-x="1523" unicode="…"/><glyph d="M578 1458h8q195 0 309.5 -137t114.5 -367v-6q0 -229 -115 -366.5t-309 -137.5h-8q-193 0 -308.5 137.5t-115.5 366.5v6q0 229 115.5 366.5t308.5 137.5zM854 0h-115l770 1434h115zM584 1362h-4q-147 0 -233.5 -108.5t-86.5 -297.5v-10q0 -186 86 -295.5t234 -109.5h4 q150 0 235.5 108.5t85.5 296.5v10q0 188 -85.5 297t-235.5 109zM1778 989h8q193 0 308.5 -137t115.5 -367v-6q0 -229 -116 -366.5t-308 -137.5h-8q-195 0 -309.5 137.5t-114.5 366.5v6q0 229 114.5 366.5t309.5 137.5zM2755 989h8q195 0 309.5 -137t114.5 -367v-6 q0 -229 -115 -366.5t-309 -137.5h-8q-193 0 -308.5 137.5t-115.5 366.5v6q0 229 115.5 366.5t308.5 137.5zM1784 893h-4q-150 0 -236 -108.5t-86 -297.5v-10q0 -188 86 -296.5t236 -108.5h4q150 0 234.5 108.5t84.5 296.5v10q0 188 -86 297t-233 109zM2761 893h-4 q-147 0 -233.5 -108.5t-86.5 -297.5v-10q0 -186 86 -295.5t234 -109.5h4q150 0 235.5 108.5t85.5 296.5v10q0 188 -85.5 297t-235.5 109z" glyph-name="perthousand" horiz-adv-x="3340" unicode="‰"/><glyph d="M326 588l362 -424h-131l-362 424l362 424h131z" glyph-name="guilsinglleft" horiz-adv-x="882" unicode="‹"/><glyph d="M688 588l-360 -424h-133l364 424l-364 424h133z" glyph-name="guilsinglright" horiz-adv-x="882" unicode="›"/><glyph d="M-100 0h-115l770 1434h117z" glyph-name="fraction" horiz-adv-x="456" unicode="⁄"/><glyph d="M1014 -25q-266 0 -440.5 154t-217.5 416h-284l32 96h242q-2 23 -2 68v16q0 31 4 92h-276l32 96h256q49 252 216 398.5t417 146.5h15q160 0 301 -67.5t235 -184.5l-69 -73q-180 229 -471 229h-11q-203 0 -342 -120t-184 -329h700l-32 -96h-682q-4 -57 -4 -90v-20 q0 -45 2 -66h624l-33 -96h-579q41 -215 185.5 -344t350.5 -129h11q289 0 471 233l69 -74q-207 -256 -536 -256z" glyph-name="Euro" horiz-adv-x="1658" unicode="€"/><glyph d="M1841 1458h8q150 0 250.5 -99t100.5 -249v-8q0 -147 -101.5 -247.5t-249.5 -100.5h-8q-150 0 -250 100t-100 248v8q0 150 99 249t251 99zM1208 1432h107v-1434h-111l-903 1268v-1266h-106v1434h110l903 -1268v1266zM2093 1104v6q0 109 -69.5 180.5t-176.5 71.5h-6 q-106 0 -176 -71.5t-70 -180.5v-6q0 -109 70 -181.5t176 -72.5h6q106 0 176 72.5t70 181.5zM1513 608h666v-96h-666v96z" glyph-name="afii61352" horiz-adv-x="2394" unicode="№"/><glyph d="M631 1434v-97h-187v-456h-104v456h-186v97h477zM1276 1434v-553h-107v381l-174 -258h-30l-174 258v-381h-105v553h109l186 -279l186 279h109z" glyph-name="trademark" horiz-adv-x="1429" unicode="™"/><glyph d="M904 1458q316 0 532.5 -214t216.5 -527q0 -39 -2 -47h-1202q-16 0 -28.5 -12.5t-12.5 -28.5v-291q0 -63 43 -107q186 -176 462 -176q324 0 517 221h110q-106 -145 -268 -223t-359 -78q-317 0 -538 216.5t-221 527.5t217 525t533 214zM408 1096v-320q0 -16 12 -28.5 t29 -12.5h907q16 0 28.5 12.5t12.5 28.5v322q0 66 -43 108q-188 172 -452 172t-451 -176q-43 -43 -43 -106z" glyph-name="estimated" horiz-adv-x="1806" unicode="℮"/><glyph d="M547 469v827l-279 -227l-73 70l364 295h92v-965h-104zM1538 1434l-770 -1434h-117l770 1434h117zM2189 258q0 -123 -106.5 -203t-270.5 -80h-4q-166 0 -272 80t-106 203q0 92 53 157.5t145 88.5q-78 27 -122 83t-44 132q0 117 98.5 193.5t247.5 76.5h4q147 0 247 -76.5 t100 -193.5q0 -76 -45 -132t-123 -81q92 -25 145 -90.5t53 -157.5zM1567 720q0 -79 64.5 -126t174.5 -47h6q111 0 175.5 47t64.5 126t-66.5 126t-173.5 47h-4q-109 0 -175 -47t-66 -126zM1808 72h4q123 0 198 52t75 138t-70.5 137.5t-189.5 51.5h-29q-119 0 -189.5 -52.5 t-70.5 -137.5t74.5 -137t197.5 -52z" glyph-name="oneeighth" horiz-adv-x="2383" unicode="⅛"/><glyph d="M948 733q0 -125 -102.5 -207t-237.5 -82q-263 0 -413 183l65 67q129 -154 328 -153q113 0 183.5 53t70.5 137q0 188 -242 189h-166v96h148q106 0 167.5 46t61.5 124t-67.5 127t-174.5 49q-188 0 -288 -152l-64 70q129 178 352 178q147 0 246.5 -77.5t99.5 -192.5 q0 -74 -43 -130.5t-118 -84.5q90 -23 142 -85.5t52 -154.5zM1726 1434l-770 -1434h-116l770 1434h116zM2378 258q0 -123 -106.5 -203t-270.5 -80h-4q-166 0 -272.5 80t-106.5 203q0 92 53 157.5t146 88.5q-78 27 -122 83t-44 132q0 117 98 193.5t248 76.5h4 q147 0 246.5 -76.5t99.5 -193.5q0 -76 -45 -132t-123 -81q92 -25 145.5 -90.5t53.5 -157.5zM1755 720q0 -79 64.5 -126t175.5 -47h6q111 0 175.5 47t64.5 126t-67 126t-173 47h-4q-109 0 -175.5 -47t-66.5 -126zM1997 72h4q123 0 197.5 52t74.5 138t-70.5 137.5t-189.5 51.5 h-28q-119 0 -190 -52.5t-71 -137.5t75 -137t198 -52z" glyph-name="threeeighths" horiz-adv-x="2572" unicode="⅜"/><glyph d="M944 769q0 -142 -101.5 -233.5t-258.5 -91.5q-113 0 -216.5 49.5t-172.5 133.5l65 67q129 -154 324 -153q115 0 184.5 63.5t69.5 166.5t-65.5 163.5t-193.5 60.5t-251 -94l-64 29l51 504h570v-97h-482l-34 -313q105 68 245 68t235 -90.5t95 -232.5zM1726 1434l-770 -1434 h-114l770 1434h114zM2380 258q0 -123 -106.5 -203t-272.5 -80h-4q-164 0 -270.5 80t-106.5 203q0 92 53 157.5t146 90.5q-78 25 -123 81t-45 132q0 117 99 193.5t247 76.5h4q150 0 248 -76.5t98 -193.5q0 -76 -44 -132t-122 -83q92 -23 145.5 -88.5t53.5 -157.5zM1757 720 q0 -79 64.5 -126t175.5 -47h6q111 0 175.5 47t64.5 126t-67 126t-175 47h-4q-106 0 -173 -47t-67 -126zM1997 72h4q123 0 197.5 52t74.5 138t-70.5 137.5t-189.5 51.5h-28q-119 0 -190 -52.5t-71 -137.5t75 -137t198 -52z" glyph-name="fiveeighths" horiz-adv-x="2574" unicode="⅝"/><glyph d="M926 1434v-68q-274 -301 -354 -467t-80 -430h-107q0 262 80 437t321 431h-591v97h731zM1485 1434l-770 -1434h-117l770 1434h117zM2136 258q0 -123 -106.5 -203t-270.5 -80h-4q-166 0 -272.5 80t-106.5 203q0 92 53.5 157.5t145.5 88.5q-78 27 -122 83t-44 132 q0 117 98.5 193.5t247.5 76.5h4q147 0 246.5 -76.5t99.5 -193.5q0 -76 -45 -132t-123 -81q92 -25 145.5 -90.5t53.5 -157.5zM1513 720q0 -79 64.5 -126t175.5 -47h6q111 0 175.5 47t64.5 126t-66.5 126t-173.5 47h-4q-109 0 -175.5 -47t-66.5 -126zM1755 72h4q123 0 198 52 t75 138t-71 137.5t-189 51.5h-29q-119 0 -189.5 -52.5t-70.5 -137.5t74.5 -137t197.5 -52z" glyph-name="seveneighths" horiz-adv-x="2330" unicode="⅞"/><glyph d="M596 1499h12q258 0 393.5 -213t135.5 -622q0 -328 -134.5 -508.5t-362.5 -180.5t-372.5 140.5t-144.5 347.5t127 339t325 132q137 0 257 -60.5t198 -164.5q-10 352 -114.5 523t-307.5 171h-12q-96 0 -190.5 -47t-157.5 -129l-66 71q78 94 187.5 147.5t226.5 53.5zM618 72 h7q180 0 288.5 136t118.5 370q-172 260 -450 260q-162 0 -257.5 -102.5t-95.5 -276.5v-4q0 -160 113.5 -271.5t275.5 -111.5z" glyph-name="partialdiff" horiz-adv-x="1290" unicode="∂"/><glyph d="M1276 569v-12q0 -254 -162 -418t-414 -164h-12q-72 0 -143 17l-88 -246h-109l98 277q-154 66 -243.5 207t-89.5 327v12q0 256 161.5 419t413.5 163h12q74 0 146 -16l88 245h108l-98 -276q154 -66 243 -207t89 -328zM219 567v-8q0 -154 69.5 -270.5t192.5 -173.5l332 927 q-53 12 -113 13h-12q-207 0 -338 -136.5t-131 -351.5zM1169 559v8q0 154 -69.5 270.5t-190.5 172.5l-331 -926q53 -12 110 -12h12q205 0 337 137t132 350z" glyph-name="emptyset" horiz-adv-x="1388" unicode="∅"/><glyph d="M1294 1337h-174v-1337h-104v1337h-643v-1337h-107v1337h-174v97h1202v-97z" glyph-name="product" horiz-adv-x="1386" unicode="∏"/><glyph d="M1008 1337h-775l457 -620l-457 -621h775v-96h-899v96l456 621l-456 620v97h899v-97z" glyph-name="summation" horiz-adv-x="1116" unicode="∑"/><glyph d="M1020 618h-928v97h928v-97z" glyph-name="minus" horiz-adv-x="1112" unicode="−"/><glyph d="M92 1030v96h289l395 -1013l514 1321h113l-563 -1434h-129l-406 1030h-213z" glyph-name="radical" horiz-adv-x="1474" unicode="√"/><glyph d="M1124 1065q160 0 263.5 -114.5t103.5 -291.5v-12q0 -176 -103.5 -290.5t-263.5 -114.5q-115 0 -197.5 65.5t-123.5 186.5q-41 -121 -124 -186.5t-200 -65.5q-160 0 -263 114.5t-103 290.5v12q0 176 104.5 291t261.5 115q115 0 200 -66.5t124 -185.5q39 121 122.5 186.5 t198.5 65.5zM752 651v4q0 137 -78 225.5t-193 88.5t-188.5 -90.5t-73.5 -223.5v-4q0 -133 74.5 -223t188.5 -90t192 89t78 224zM1386 651v4q0 133 -74.5 223.5t-189.5 90.5t-192.5 -88t-77.5 -226v-4q0 -135 78 -224t192 -89t189 90t75 223z" glyph-name="infinity" horiz-adv-x="1603" unicode="∞"/><glyph d="M682 1499q70 0 164 -12v-92q-64 8 -156 8t-130 -42t-38 -149v-1409q0 -156 -61.5 -227.5t-204.5 -71.5q-70 0 -164 13v92q64 -8 156 -8t130 42t38 148v1409q0 156 61.5 227.5t204.5 71.5z" glyph-name="integral" horiz-adv-x="937" unicode="∫"/><glyph d="M328 1016q106 0 209 -117q59 -66 86.5 -86t69.5 -20t77 42t66 154l82 -45q-63 -248 -236 -248q-106 0 -209 117q-59 66 -87 86.5t-70 20.5t-76.5 -42t-65.5 -155l-82 45q64 248 236 248zM328 621q106 0 209 -117q59 -66 86.5 -86.5t69.5 -20.5t77 42t66 155l82 -45 q-63 -248 -236 -248q-106 0 -209 117q-59 66 -87 86t-70 20t-76.5 -42t-65.5 -154l-82 45q64 248 236 248z" glyph-name="approxequal" horiz-adv-x="1009" unicode="≈"/><glyph d="M1020 502v-96h-512l-119 -295h-106l118 295h-309v96h348l127 317h-475v96h514l119 295h106l-118 -295h307v-96h-346l-127 -317h473z" glyph-name="notequal" horiz-adv-x="1112" unicode="≠"/><glyph d="M1020 961l-764 -220l764 -219v-106l-928 276v99l928 276v-106zM92 272h928v-96h-928v96z" glyph-name="lessequal" horiz-adv-x="1112" unicode="≤"/><glyph d="M1020 791v-99l-928 -276v106l764 219l-764 220v106zM92 272h928v-96h-928v96z" glyph-name="greaterequal" horiz-adv-x="1112" unicode="≥"/><glyph d="M645 1059l-221 -375h-111l-221 375l221 375h111zM528 1059l-159 272l-160 -272l160 -271z" glyph-name="lozenge" horiz-adv-x="737" unicode="◊"/><glyph d="M249 1384q-38 0 -61.5 21.5t-23.5 59.5t23.5 58.5t61.5 20.5t60.5 -20.5t22.5 -58.5t-22.5 -59.5t-60.5 -21.5zM301 0h-106v1126h106v-1126z" glyph-name="i.aalt" horiz-adv-x="485"/><glyph d="M1169 1126v-1126h-104v242q-57 -125 -172 -196t-258 -71h-12q-227 0 -368.5 164t-141.5 418v12q0 254 141 418t369 164h12q145 0 259 -69.5t171 -194.5v239h104zM635 72h12q184 0 301 136t117 351v8q0 217 -117 352.5t-301 135.5h-12q-184 0 -300 -135.5t-116 -352.5v-8 q0 -215 117 -351t299 -136z" glyph-name="a.aalt" horiz-adv-x="1353"/><glyph d="M741 1264h-120l288 393h131zM1169 1126v-1126h-104v242q-57 -125 -172 -196t-258 -71h-12q-227 0 -368.5 164t-141.5 418v12q0 254 141 418t369 164h12q145 0 259 -69.5t171 -194.5v239h104zM635 72h12q184 0 301 136t117 351v8q0 217 -117 352.5t-301 135.5h-12 q-184 0 -300 -135.5t-116 -352.5v-8q0 -215 117 -351t299 -136z" glyph-name="aacute.aalt" horiz-adv-x="1353"/><glyph d="M676 1268q-162 0 -263.5 105.5t-111.5 283.5h98q14 -139 88 -216t190 -77t188.5 77t88.5 216h97q-10 -178 -111.5 -283.5t-263.5 -105.5zM1169 1126v-1126h-104v242q-57 -125 -172 -196t-258 -71h-12q-227 0 -368.5 164t-141.5 418v12q0 254 141 418t369 164h12 q145 0 259 -69.5t171 -194.5v239h104zM635 72h12q184 0 301 136t117 351v8q0 217 -117 352.5t-301 135.5h-12q-184 0 -300 -135.5t-116 -352.5v-8q0 -215 117 -351t299 -136z" glyph-name="abreve.aalt" horiz-adv-x="1353"/><glyph d="M606 1264l-289 393h121l240 -314l240 314h118l-288 -393h-142zM1169 1126v-1126h-104v242q-57 -125 -172 -196t-258 -71h-12q-227 0 -368.5 164t-141.5 418v12q0 254 141 418t369 164h12q145 0 259 -69.5t171 -194.5v239h104zM635 72h12q184 0 301 136t117 351v8 q0 217 -117 352.5t-301 135.5h-12q-184 0 -300 -135.5t-116 -352.5v-8q0 -215 117 -351t299 -136z" glyph-name="uni01CE.aalt" horiz-adv-x="1353"/><glyph d="M438 1264h-121l289 393h142l288 -393h-118l-240 313zM1169 1126v-1126h-104v242q-57 -125 -172 -196t-258 -71h-12q-227 0 -368.5 164t-141.5 418v12q0 254 141 418t369 164h12q145 0 259 -69.5t171 -194.5v239h104zM635 72h12q184 0 301 136t117 351v8q0 217 -117 352.5 t-301 135.5h-12q-184 0 -300 -135.5t-116 -352.5v-8q0 -215 117 -351t299 -136z" glyph-name="acircumflex.aalt" horiz-adv-x="1353"/><glyph d="M486 1384q-38 0 -61.5 21.5t-23.5 59.5t23.5 58.5t61.5 20.5t60.5 -20.5t22.5 -58.5t-22.5 -59.5t-60.5 -21.5zM865 1384q-38 0 -61.5 21.5t-23.5 59.5t23.5 58.5t61.5 20.5t60.5 -20.5t22.5 -58.5t-22.5 -59.5t-60.5 -21.5zM1169 1126v-1126h-104v242 q-57 -125 -172 -196t-258 -71h-12q-227 0 -368.5 164t-141.5 418v12q0 254 141 418t369 164h12q145 0 259 -69.5t171 -194.5v239h104zM635 72h12q184 0 301 136t117 351v8q0 217 -117 352.5t-301 135.5h-12q-184 0 -300 -135.5t-116 -352.5v-8q0 -215 117 -351t299 -136z " glyph-name="adieresis.aalt" horiz-adv-x="1353"/><glyph d="M610 1264l-299 393h131l289 -393h-121zM1169 1126v-1126h-104v242q-57 -125 -172 -196t-258 -71h-12q-227 0 -368.5 164t-141.5 418v12q0 254 141 418t369 164h12q145 0 259 -69.5t171 -194.5v239h104zM635 72h12q184 0 301 136t117 351v8q0 217 -117 352.5t-301 135.5 h-12q-184 0 -300 -135.5t-116 -352.5v-8q0 -215 117 -351t299 -136z" glyph-name="agrave.aalt" horiz-adv-x="1353"/><glyph d="M932 1382h-512v97h512v-97zM1169 1126v-1126h-104v242q-57 -125 -172 -196t-258 -71h-12q-227 0 -368.5 164t-141.5 418v12q0 254 141 418t369 164h12q145 0 259 -69.5t171 -194.5v239h104zM635 72h12q184 0 301 136t117 351v8q0 217 -117 352.5t-301 135.5h-12 q-184 0 -300 -135.5t-116 -352.5v-8q0 -215 117 -351t299 -136z" glyph-name="amacron.aalt" horiz-adv-x="1353"/><glyph d="M928 -293q0 -82 68.5 -107.5t174.5 17.5v-86q-69 -27 -153 -27t-140.5 50.5t-56.5 140.5q0 170 244 323v224q-57 -125 -172 -196t-258 -71h-12q-227 0 -368.5 164t-141.5 418v12q0 254 141 418t369 164h12q145 0 259 -69.5t171 -194.5v239h104v-1124l2 -2 q-243 -164 -243 -293zM635 72h12q184 0 301 136t117 351v8q0 217 -117 352.5t-301 135.5h-12q-184 0 -300 -135.5t-116 -352.5v-8q0 -215 117 -351t299 -136z" glyph-name="aogonek.aalt" horiz-adv-x="1353"/><glyph d="M677 1239q-103 0 -170 62.5t-67 159.5t66 158.5t170 61.5t170.5 -60.5t66.5 -158.5t-66.5 -160.5t-169.5 -62.5zM677.5 1599q-63.5 0 -102 -38.5t-38.5 -100t38.5 -99.5t102 -38t101.5 38t38 99.5t-38 100t-101.5 38.5zM1169 1126v-1126h-104v242q-57 -125 -172 -196 t-258 -71h-12q-227 0 -368.5 164t-141.5 418v12q0 254 141 418t369 164h12q145 0 259 -69.5t171 -194.5v239h104zM635 72h12q184 0 301 136t117 351v8q0 217 -117 352.5t-301 135.5h-12q-184 0 -300 -135.5t-116 -352.5v-8q0 -215 117 -351t299 -136z" glyph-name="aring.aalt" horiz-adv-x="1353"/><glyph d="M498 1626q63 0 109.5 -28.5t102.5 -102.5t82.5 -97.5t63.5 -23.5q104 0 74 236h90q27 -162 -16 -246t-150 -84q-63 0 -109.5 28.5t-102.5 102.5t-83 97.5t-63 23.5q-105 0 -74 -236h-90q-27 162 16 246t150 84zM1169 1126v-1126h-104v242q-57 -125 -172 -196t-258 -71 h-12q-227 0 -368.5 164t-141.5 418v12q0 254 141 418t369 164h12q145 0 259 -69.5t171 -194.5v239h104zM635 72h12q184 0 301 136t117 351v8q0 217 -117 352.5t-301 135.5h-12q-184 0 -300 -135.5t-116 -352.5v-8q0 -215 117 -351t299 -136z" glyph-name="atilde.aalt" horiz-adv-x="1353"/><glyph d="M2101 518h-930q10 -203 127 -324.5t304 -121.5h12q233 0 371 176l65 -70q-162 -203 -446 -203t-435 211v-186h-104v242q-57 -125 -172 -196t-258 -71h-12q-227 0 -368.5 164t-141.5 418v12q0 254 141 418t369 164h12q145 0 259 -69.5t171 -194.5v239h104v-186 q145 211 416 211h12q227 0 365.5 -158.5t138.5 -423.5v-51zM635 72h12q184 0 301 136t117 351v8q0 217 -117 352.5t-301 135.5h-12q-184 0 -300 -135.5t-116 -352.5v-8q0 -215 117 -351t299 -136zM1597 1055h-12q-176 0 -288.5 -120t-125.5 -321h824q-12 203 -119 322 t-279 119z" glyph-name="ae.aalt" horiz-adv-x="2203"/><glyph d="M1077 1126v-680q0 -225 -116.5 -348t-331.5 -123h-6q-215 0 -332 123t-117 348v680h107v-677q0 -184 87 -280.5t255 -96.5h6q168 0 255 96t87 281v677h106z" glyph-name="u.aalt"/><glyph d="M688 1264h-121l289 393h131zM1077 1126v-680q0 -225 -116.5 -348t-331.5 -123h-6q-215 0 -332 123t-117 348v680h107v-677q0 -184 87 -280.5t255 -96.5h6q168 0 255 96t87 281v677h106z" glyph-name="uacute.aalt"/><glyph d="M553 1264l-289 393h121l240 -314l239 314h119l-289 -393h-141zM1077 1126v-680q0 -225 -116.5 -348t-331.5 -123h-6q-215 0 -332 123t-117 348v680h107v-677q0 -184 87 -280.5t255 -96.5h6q168 0 255 96t87 281v677h106z" glyph-name="uni01D4.aalt"/><glyph d="M385 1264h-121l289 393h141l289 -393h-119l-239 313zM1077 1126v-680q0 -225 -116.5 -348t-331.5 -123h-6q-215 0 -332 123t-117 348v680h107v-677q0 -184 87 -280.5t255 -96.5h6q168 0 255 96t87 281v677h106z" glyph-name="ucircumflex.aalt"/><glyph d="M433 1384q-38 0 -61.5 21.5t-23.5 59.5t23.5 58.5t61.5 20.5t60.5 -20.5t22.5 -58.5t-22.5 -59.5t-60.5 -21.5zM812 1384q-38 0 -61.5 21.5t-23.5 59.5t23.5 58.5t61.5 20.5t60.5 -20.5t22.5 -58.5t-22.5 -59.5t-60.5 -21.5zM1077 1126v-680q0 -225 -116.5 -348 t-331.5 -123h-6q-215 0 -332 123t-117 348v680h107v-677q0 -184 87 -280.5t255 -96.5h6q168 0 255 96t87 281v677h106z" glyph-name="udieresis.aalt"/><glyph d="M688 1665h-121l289 391h131zM433 1384q-38 0 -61.5 21.5t-23.5 59.5t23.5 58.5t61.5 20.5t60.5 -20.5t22.5 -58.5t-22.5 -59.5t-60.5 -21.5zM812 1384q-38 0 -61.5 21.5t-23.5 59.5t23.5 58.5t61.5 20.5t60.5 -20.5t22.5 -58.5t-22.5 -59.5t-60.5 -21.5zM1077 1126v-680 q0 -225 -116.5 -348t-331.5 -123h-6q-215 0 -332 123t-117 348v680h107v-677q0 -184 87 -280.5t255 -96.5h6q168 0 255 96t87 281v677h106z" glyph-name="uni01D8.aalt"/><glyph d="M553 1665l-289 391h119l240 -313l239 313h121l-289 -391h-141zM348 1465q0 38 23.5 58.5t61.5 20.5t60.5 -20.5t22.5 -58.5t-22.5 -59.5t-60.5 -21.5t-61.5 21.5t-23.5 59.5zM727 1465q0 38 23.5 58.5t61.5 20.5t60.5 -20.5t22.5 -58.5t-22.5 -59.5t-60.5 -21.5 t-61.5 21.5t-23.5 59.5zM1077 1126v-680q0 -225 -116.5 -348t-331.5 -123h-6q-215 0 -332 123t-117 348v680h107v-677q0 -184 87 -280.5t255 -96.5h6q168 0 255 96t87 281v677h106z" glyph-name="uni01DA.aalt"/><glyph d="M389 2056l289 -391h-121l-299 391h131zM433 1384q-38 0 -61.5 21.5t-23.5 59.5t23.5 58.5t61.5 20.5t60.5 -20.5t22.5 -58.5t-22.5 -59.5t-60.5 -21.5zM812 1384q-38 0 -61.5 21.5t-23.5 59.5t23.5 58.5t61.5 20.5t60.5 -20.5t22.5 -58.5t-22.5 -59.5t-60.5 -21.5z M1077 1126v-680q0 -225 -116.5 -348t-331.5 -123h-6q-215 0 -332 123t-117 348v680h107v-677q0 -184 87 -280.5t255 -96.5h6q168 0 255 96t87 281v677h106z" glyph-name="uni01DC.aalt"/><glyph d="M389 1657l289 -393h-121l-299 393h131zM1077 1126v-680q0 -225 -116.5 -348t-331.5 -123h-6q-215 0 -332 123t-117 348v680h107v-677q0 -184 87 -280.5t255 -96.5h6q168 0 255 96t87 281v677h106z" glyph-name="ugrave.aalt"/><glyph d="M530 1264h-120l288 393h131zM846 1264h-121l289 393h131zM1077 1126v-680q0 -225 -116.5 -348t-331.5 -123h-6q-215 0 -332 123t-117 348v680h107v-677q0 -184 87 -280.5t255 -96.5h6q168 0 255 96t87 281v677h106z" glyph-name="uhungarumlaut.aalt"/><glyph d="M879 1382h-512v97h512v-97zM1077 1126v-680q0 -225 -116.5 -348t-331.5 -123h-6q-215 0 -332 123t-117 348v680h107v-677q0 -184 87 -280.5t255 -96.5h6q168 0 255 96t87 281v677h106z" glyph-name="umacron.aalt"/><glyph d="M1077 1126v-680q0 -362 -284 -448q-240 -164 -240 -291q0 -82 67.5 -107.5t176.5 17.5v-86q-70 -27 -154 -27t-140.5 50.5t-56.5 140.5q0 145 181 280h-4q-215 0 -332 123t-117 348v680h107v-677q0 -184 87 -280.5t255 -96.5h6q168 0 255 96t87 281v677h106z" glyph-name="uogonek.aalt"/><glyph d="M624 1681q103 0 169.5 -60.5t66.5 -158.5t-66.5 -160.5t-169.5 -62.5t-170 62.5t-67 159.5t67 158.5t170 61.5zM624.5 1323q63.5 0 101.5 38t38 99.5t-38 100t-101.5 38.5t-102.5 -38.5t-39 -100t39 -99.5t102.5 -38zM1077 1126v-680q0 -225 -116.5 -348t-331.5 -123h-6 q-215 0 -332 123t-117 348v680h107v-677q0 -184 87 -280.5t255 -96.5h6q168 0 255 96t87 281v677h106z" glyph-name="uring.aalt"/><glyph d="M254 1126v86q0 152 69.5 219.5t211.5 67.5q74 0 147 -8v-92q-80 4 -162 4t-122 -40t-40 -144v-93h324v-92h-324v-1034h-104v1034h-162v92h162zM1499 1151h12q229 0 369.5 -164t140.5 -418v-12q0 -254 -140 -418t-370 -164h-12q-141 0 -256 70t-172 193v-238h-106v1475 h106v-584q57 123 172 191.5t256 68.5zM1917 559v8q0 217 -117 352.5t-301 135.5h-12q-184 0 -300 -135.5t-116 -352.5v-8q0 -215 117 -351t299 -136h12q184 0 301 136t117 351z" glyph-name="f_b.dlig" horiz-adv-x="2134"/><glyph d="M926 1126v86q0 152 69.5 219.5t210.5 67.5q74 0 148 -8v-92q-80 4 -162 4t-122 -40t-40 -144v-93h324v-92h-324v-1034h-104v1034h-568v-1034h-104v1034h-162v92h162v86q0 152 69.5 219.5t211.5 67.5q74 0 147 -8v-92q-80 4 -162 4t-122 -40t-40 -144v-93h568zM2175 1151 h12q229 0 369.5 -164t140.5 -418v-12q0 -254 -140 -418t-370 -164h-12q-141 0 -256 70t-172 193v-238h-107v1475h107v-584q57 123 172 191.5t256 68.5zM2593 559v8q0 217 -117 352.5t-301 135.5h-12q-184 0 -300 -135.5t-116 -352.5v-8q0 -215 116.5 -351t299.5 -136h12 q184 0 301 136t117 351z" glyph-name="f_f_b.dlig" horiz-adv-x="2809"/><glyph d="M926 1126v86q0 152 69.5 219.5t210.5 67.5q74 0 148 -8v-92q-80 4 -162 4t-122 -40t-40 -144v-93h324v-92h-324v-1034h-104v1034h-568v-1034h-104v1034h-162v92h162v86q0 152 69.5 219.5t211.5 67.5q74 0 147 -8v-92q-80 4 -162 4t-122 -40t-40 -144v-93h568zM2150 1151 h9q193 0 296 -114.5t103 -321.5v-715h-107v715q0 164 -75.5 252t-225.5 88h-8q-170 0 -277.5 -136.5t-107.5 -351.5v-567h-106v1475h106v-582q53 121 156.5 189.5t236.5 68.5z" glyph-name="f_f_h.dlig" horiz-adv-x="2732"/><glyph d="M926 1126v86q0 152 69.5 219.5t210.5 67.5q74 0 148 -8v-92q-80 4 -162 4t-122 -40t-40 -144v-93h324v-92h-324v-1034h-104v1034h-568v-1034h-104v1034h-162v92h162v86q0 152 69.5 219.5t211.5 67.5q74 0 147 -8v-92q-80 4 -162 4t-122 -40t-40 -144v-93h568zM1723 1475 q38 0 59.5 -19.5t21.5 -54.5t-21.5 -55.5t-59.5 -20.5t-59.5 20.5t-21.5 55.5t21.5 54.5t59.5 19.5zM1671 1126h107v-1325q0 -154 -59.5 -225.5t-188.5 -71.5q-59 0 -98 11v94q43 -8 86 -8q84 0 118.5 42t34.5 144v1339z" glyph-name="f_f_j.dlig" horiz-adv-x="1988"/><glyph d="M926 1126v86q0 152 69.5 219.5t210.5 67.5q74 0 148 -8v-92q-80 4 -162 4t-122 -40t-40 -144v-93h324v-92h-324v-1034h-104v1034h-568v-1034h-104v1034h-162v92h162v86q0 152 69.5 219.5t211.5 67.5q74 0 147 -8v-92q-80 4 -162 4t-122 -40t-40 -144v-93h568zM1757 0 h-106v1475h106v-1029l639 680h137l-454 -479l499 -647h-129l-442 571l-250 -262v-309z" glyph-name="f_f_k.dlig" horiz-adv-x="2629"/><glyph d="M254 1126v86q0 152 69.5 219.5t211.5 67.5q74 0 147 -8v-92q-80 4 -162 4t-122 -40t-40 -144v-93h324v-92h-324v-1034h-104v1034h-162v92h162zM1475 1151h8q193 0 296 -114.5t103 -321.5v-715h-106v715q0 164 -76 252t-225 88h-9q-170 0 -277.5 -136.5t-107.5 -351.5 v-567h-106v1475h106v-582q53 121 157 189.5t237 68.5z" glyph-name="f_h.dlig" horiz-adv-x="2054"/><glyph d="M254 1126v86q0 152 69.5 219.5t211.5 67.5q74 0 147 -8v-92q-80 4 -162 4t-122 -40t-40 -144v-93h324v-92h-324v-1034h-104v1034h-162v92h162zM1017 1475q38 0 59.5 -19.5t21.5 -54.5t-21.5 -55.5t-59.5 -20.5t-59.5 20.5t-21.5 55.5t21.5 54.5t59.5 19.5zM965 1126h106 v-1325q0 -154 -59.5 -225.5t-188.5 -71.5q-59 0 -98 11v94q43 -8 86 -8q84 0 119 42t35 144v1339z" glyph-name="f_j.dlig" horiz-adv-x="1282"/><glyph d="M254 1126v86q0 152 69.5 219.5t211.5 67.5q74 0 147 -8v-92q-80 4 -162 4t-122 -40t-40 -144v-93h324v-92h-324v-1034h-104v1034h-162v92h162zM1081 0h-106v1475h106v-1029l639 680h138l-455 -479l500 -647h-129l-443 571l-250 -262v-309z" glyph-name="f_k.dlig" horiz-adv-x="1953"/><glyph d="M254 1126v86q0 152 69.5 219.5t211.5 67.5q74 0 147 -8v-92q-80 4 -162 4t-122 -40t-40 -144v-93h324v-92h-324v-1034h-104v1034h-162v92h162zM1081 1475v-1475h-106v1475h106z" glyph-name="f_l.dlig" horiz-adv-x="1253"/><glyph d="M578 989h8q195 0 309.5 -137t114.5 -367v-6q0 -229 -115 -366.5t-309 -137.5h-8q-193 0 -308.5 137.5t-115.5 366.5v6q0 229 115.5 366.5t308.5 137.5zM905 477v10q0 188 -86 297t-235 109h-4q-147 0 -233.5 -108.5t-86.5 -297.5v-10q0 -186 86 -295.5t234 -109.5h4 q150 0 235.5 108.5t85.5 296.5z" glyph-name="zero.dnom" horiz-adv-x="1163"/><glyph d="M487 965v-965h-104v827l-279 -227l-73 70l364 295h92z" glyph-name="one.dnom" horiz-adv-x="702"/><glyph d="M877 96v-96h-742v86q401 324 499.5 421t98.5 183t-65.5 144.5t-163.5 58.5q-176 0 -289 -166l-68 76q133 186 361 186q141 0 236.5 -84t95.5 -201t-109.5 -237.5t-431.5 -370.5h578z" glyph-name="two.dnom" horiz-adv-x="1009"/><glyph d="M860 264q0 -125 -102.5 -207t-237.5 -82t-239.5 49.5t-171.5 133.5l63 67q131 -154 328 -153q113 0 184.5 53t71.5 137q0 188 -244 189h-164v96h148q106 0 166.5 46t60.5 125t-67.5 127t-174.5 48q-184 0 -288 -152l-62 70q127 178 350 178q150 0 249 -77.5t99 -192.5 q0 -76 -42.5 -131t-120.5 -82q92 -23 143 -86.5t51 -155.5z" glyph-name="three.dnom" horiz-adv-x="968"/><glyph d="M874 332v-96h-188v-236h-106v236h-519v71l502 658h123v-633h188zM580 332v502l-379 -502h379z" glyph-name="four.dnom" horiz-adv-x="935"/><glyph d="M522 623q140 0 235 -90.5t95 -232.5t-101.5 -233.5t-258.5 -91.5q-113 0 -216.5 49.5t-173.5 133.5l66 67q129 -154 324 -153q115 0 184 63.5t69 166.5t-65.5 163.5t-193.5 60.5t-250 -94l-64 29l51 504h570v-97h-482l-35 -313q106 68 246 68z" glyph-name="five.dnom" horiz-adv-x="964"/><glyph d="M534 623q160 0 252.5 -87.5t92.5 -227.5t-97.5 -236.5t-242.5 -96.5q-180 0 -282.5 130.5t-102.5 370.5t101 376.5t289 136.5t302 -129l-68 -74q-92 106 -227 107q-281 0 -291 -406q114 136 274 136zM774 307v6q0 96 -62.5 154.5t-162.5 58.5q-176 0 -287 -151 q12 -143 84 -223t189 -80h4q100 0 167.5 67.5t67.5 167.5z" glyph-name="six.dnom" horiz-adv-x="1001"/><glyph d="M793 965v-68q-274 -301 -354.5 -467t-80.5 -430h-106q0 262 80 437t321 431h-592v97h732z" glyph-name="seven.dnom" horiz-adv-x="854"/><glyph d="M868 258q0 -123 -106.5 -203t-272.5 -80h-4q-164 0 -270 80t-106 203q0 92 53 157.5t145 90.5q-78 25 -123 81t-45 132q0 117 99.5 193.5t246.5 76.5h4q150 0 248.5 -76.5t98.5 -193.5q0 -76 -44 -132t-122 -83q92 -23 145 -88.5t53 -157.5zM246 720q0 -79 64.5 -126 t174.5 -47h7q111 0 175 47t64 126t-66.5 126t-175.5 47h-4q-106 0 -172.5 -47t-66.5 -126zM485 72h4q123 0 198 52t75 138t-70.5 137.5t-189.5 51.5h-29q-119 0 -189.5 -52.5t-70.5 -137.5t74.5 -137t197.5 -52z" glyph-name="eight.dnom" horiz-adv-x="974"/><glyph d="M465 989q178 0 280.5 -128.5t102.5 -370.5t-101.5 -378.5t-288.5 -136.5t-300 129l67 76q94 -109 228 -108q281 0 290 405q-115 -135 -275 -135t-252.5 87t-92.5 227t98.5 236.5t243.5 96.5zM453 438q172 0 288 152q-14 143 -85.5 223t-188.5 80h-2q-100 0 -168 -67.5 t-68 -166.5v-6q0 -96 62 -155.5t162 -59.5z" glyph-name="nine.dnom" horiz-adv-x="1001"/><glyph d="M578 1458h8q195 0 309.5 -137t114.5 -367v-6q0 -229 -115 -366.5t-309 -137.5h-8q-193 0 -308.5 137.5t-115.5 366.5v6q0 229 115.5 366.5t308.5 137.5zM905 946v10q0 188 -86 297t-235 109h-4q-147 0 -233.5 -108.5t-86.5 -297.5v-10q0 -186 86 -295.5t234 -109.5h4 q150 0 235.5 108.5t85.5 296.5z" glyph-name="zero.numr" horiz-adv-x="1163"/><glyph d="M487 1434v-965h-104v827l-279 -227l-73 70l364 295h92z" glyph-name="one.numr" horiz-adv-x="702"/><glyph d="M877 565v-96h-742v86q401 324 499.5 421t98.5 183t-65.5 144.5t-163.5 58.5q-176 0 -289 -166l-68 76q133 186 361 186q141 0 236.5 -84t95.5 -201t-109.5 -237.5t-431.5 -370.5h578z" glyph-name="two.numr" horiz-adv-x="1009"/><glyph d="M860 733q0 -125 -102.5 -207t-237.5 -82t-239.5 49.5t-171.5 133.5l63 67q131 -154 328 -153q113 0 184.5 53t71.5 137q0 188 -244 189h-164v96h148q106 0 166.5 46t60.5 125t-67.5 127t-174.5 48q-184 0 -288 -152l-62 70q127 178 350 178q150 0 249 -77.5t99 -192.5 q0 -76 -42.5 -131t-120.5 -82q92 -23 143 -86.5t51 -155.5z" glyph-name="three.numr" horiz-adv-x="968"/><glyph d="M874 801v-96h-188v-236h-106v236h-519v71l502 658h123v-633h188zM580 801v502l-379 -502h379z" glyph-name="four.numr" horiz-adv-x="935"/><glyph d="M522 1092q140 0 235 -90.5t95 -232.5t-101.5 -233.5t-258.5 -91.5q-113 0 -216.5 49.5t-173.5 133.5l66 67q129 -154 324 -153q115 0 184 63.5t69 166.5t-65.5 163.5t-193.5 60.5t-250 -94l-64 29l51 504h570v-97h-482l-35 -313q106 68 246 68z" glyph-name="five.numr" horiz-adv-x="964"/><glyph d="M534 1092q160 0 252.5 -87t92.5 -227t-97.5 -237t-242.5 -97q-180 0 -282.5 131t-102.5 371t101 376t289 136t302 -129l-68 -74q-92 106 -227 107q-281 0 -291 -406q114 136 274 136zM774 776v6q0 96 -62.5 154.5t-162.5 58.5q-176 0 -287 -151q12 -143 84 -223t189 -80 h4q100 0 167.5 67.5t67.5 167.5z" glyph-name="six.numr" horiz-adv-x="1001"/><glyph d="M793 1434v-68q-274 -301 -354.5 -467t-80.5 -430h-106q0 262 80 437t321 431h-592v97h732z" glyph-name="seven.numr" horiz-adv-x="854"/><glyph d="M868 727q0 -123 -106.5 -203t-272.5 -80h-4q-164 0 -270 80t-106 203q0 92 53 157.5t145 90.5q-78 25 -123 81t-45 132q0 117 99.5 193.5t246.5 76.5h4q150 0 248.5 -76.5t98.5 -193.5q0 -76 -44 -132t-122 -83q92 -23 145 -88.5t53 -157.5zM246 1189q0 -79 64.5 -126 t174.5 -47h7q111 0 175 47t64 126t-66.5 126t-175.5 47h-4q-106 0 -172.5 -47t-66.5 -126zM485 541h4q123 0 198 52t75 138t-70.5 137.5t-189.5 51.5h-29q-119 0 -189.5 -52.5t-70.5 -137.5t74.5 -137t197.5 -52z" glyph-name="eight.numr" horiz-adv-x="974"/><glyph d="M465 1458q178 0 280.5 -129t102.5 -371t-101.5 -378t-288.5 -136t-300 129l67 76q94 -109 228 -108q281 0 290 405q-115 -135 -275 -135t-252.5 87t-92.5 227t98.5 236.5t243.5 96.5zM453 907q172 0 288 152q-14 143 -85.5 223t-188.5 80h-2q-100 0 -168 -67.5 t-68 -166.5v-6q0 -96 62 -155.5t162 -59.5z" glyph-name="nine.numr" horiz-adv-x="1001"/></font>
</defs>
</svg>
